<svg width="24" height="24" viewBox="0 0 24 24" fill="none" xmlns="http://www.w3.org/2000/svg">
<path d="M3 12.3473C3 12.5896 3.10662 12.8126 3.30046 12.9968L9.73665 19.4233C9.94021 19.6074 10.1438 19.6947 10.3667 19.6947C10.8514 19.6947 11.2197 19.3457 11.2197 18.8611C11.2197 18.6284 11.1325 18.3958 10.9774 18.2504L8.81584 16.0404L5.53957 13.0646L7.89498 13.21H20.147C20.651 13.21 21 12.8514 21 12.3473C21 11.8433 20.651 11.4847 20.147 11.4847H7.89498L5.54929 11.63L8.81584 8.65427L10.9774 6.44427C11.1422 6.28914 11.2197 6.06623 11.2197 5.83359C11.2197 5.34893 10.8514 5 10.3667 5C10.1438 5 9.93053 5.07754 9.7173 5.29078L3.30046 11.6979C3.10662 11.8821 3 12.105 3 12.3473Z" fill="#44546F"/>
</svg>
