<svg width="128" height="128" viewBox="0 0 128 128" fill="none" xmlns="http://www.w3.org/2000/svg">
<path fill-rule="evenodd" clip-rule="evenodd" d="M44.344 39.4975L44.3674 39.4388C44.3674 39.4388 44.3376 39.4062 44.3013 39.3692C44.265 39.3323 44.1882 39.354 44.1882 39.354L44.1008 39.2529H43.9472H43.7936L43.7061 39.354C43.7061 39.354 43.6293 39.3323 43.593 39.3692C43.5568 39.4062 43.5269 39.4388 43.5269 39.4388L43.5504 39.4975L43.5205 39.5844C43.5205 39.5844 43.6083 39.9234 43.6186 39.9648C43.6389 40.0463 43.6528 40.0778 43.7104 40.1191C43.768 40.1604 43.8725 40.2321 43.8896 40.243C43.9066 40.2538 43.928 40.2724 43.9472 40.2724C43.9664 40.2724 43.9877 40.2538 44.0048 40.243C44.0218 40.2321 44.1264 40.1604 44.184 40.1191C44.2416 40.0778 44.2554 40.0463 44.2757 39.9648C44.286 39.9234 44.3738 39.5844 44.3738 39.5844L44.344 39.4975Z" fill="url(#paint0_linear_37_61)"/>
<path fill-rule="evenodd" clip-rule="evenodd" d="M43.9462 39.8872C43.9521 39.8872 43.9895 39.9007 44.0196 39.9166C44.0497 39.9324 44.0715 39.9436 44.0784 39.9481C44.0854 39.9525 44.0811 39.9609 44.0748 39.9654C44.0684 39.97 43.9832 40.0373 43.9749 40.0447C43.9666 40.0521 43.9545 40.0644 43.9462 40.0644C43.938 40.0644 43.9258 40.0521 43.9175 40.0447C43.9092 40.0373 43.824 39.97 43.8177 39.9654C43.8113 39.9609 43.8071 39.9525 43.814 39.9481C43.821 39.9436 43.8428 39.9324 43.8728 39.9166C43.9029 39.9007 43.9404 39.8872 43.9462 39.8872ZM43.9467 39.4082C43.9496 39.4083 43.9657 39.4091 43.9889 39.417C44.0145 39.4256 44.0422 39.4365 44.055 39.4365C44.0678 39.4365 44.1628 39.418 44.1628 39.418C44.1628 39.418 44.2753 39.5566 44.2753 39.5862C44.2753 39.6158 44.2611 39.6236 44.2469 39.639C44.2326 39.6544 44.1705 39.7217 44.1625 39.7303C44.1545 39.7389 44.1379 39.752 44.1477 39.7756C44.1575 39.7991 44.1719 39.8291 44.1559 39.8595C44.1398 39.89 44.1124 39.9103 44.0948 39.9069C44.0772 39.9035 44.0358 39.8815 44.0206 39.8715C44.0054 39.8614 43.9572 39.8209 43.9572 39.8055C43.9572 39.79 44.007 39.7622 44.0162 39.7558C44.0254 39.7495 44.0674 39.7251 44.0683 39.7155C44.0691 39.7059 44.0688 39.7031 44.0564 39.6793C44.044 39.6556 44.0217 39.624 44.0254 39.6029C44.0292 39.5819 44.0651 39.5709 44.0908 39.561C44.1165 39.5512 44.1659 39.5325 44.172 39.5296C44.1782 39.5267 44.1766 39.5239 44.1579 39.5221C44.1392 39.5203 44.0862 39.5132 44.0622 39.52C44.0383 39.5267 43.9974 39.5371 43.9941 39.5426C43.9908 39.548 43.9879 39.5482 43.9913 39.5671C43.9947 39.5861 44.0122 39.6768 44.0139 39.6929C44.0156 39.709 44.0189 39.7197 44.0019 39.7236C43.9848 39.7276 43.9561 39.7345 43.9462 39.7345C43.9364 39.7345 43.9076 39.7276 43.8906 39.7236C43.8735 39.7197 43.8769 39.709 43.8786 39.6929C43.8803 39.6768 43.8978 39.5861 43.9012 39.5671C43.9046 39.5482 43.9016 39.548 43.8983 39.5426C43.895 39.5371 43.8541 39.5267 43.8302 39.52C43.8063 39.5132 43.7532 39.5203 43.7345 39.5221C43.7158 39.5239 43.7142 39.5267 43.7204 39.5296C43.7266 39.5325 43.776 39.5512 43.8017 39.561C43.8273 39.5709 43.8633 39.5819 43.867 39.6029C43.8707 39.624 43.8484 39.6556 43.836 39.6793C43.8236 39.7031 43.8233 39.7059 43.8242 39.7155C43.825 39.7251 43.867 39.7495 43.8762 39.7558C43.8854 39.7622 43.9352 39.79 43.9352 39.8055C43.9352 39.8209 43.887 39.8614 43.8718 39.8715C43.8566 39.8815 43.8153 39.9035 43.7977 39.9069C43.7801 39.9103 43.7526 39.89 43.7366 39.8595C43.7206 39.8291 43.735 39.7991 43.7447 39.7756C43.7545 39.752 43.7379 39.7389 43.7299 39.7303C43.7219 39.7217 43.6598 39.6544 43.6456 39.639C43.6313 39.6236 43.6172 39.6158 43.6172 39.5862C43.6172 39.5566 43.7297 39.418 43.7297 39.418C43.7297 39.418 43.8246 39.4365 43.8374 39.4365C43.8502 39.4365 43.878 39.4256 43.9036 39.417C43.9267 39.4091 43.9429 39.4083 43.9458 39.4082H43.9467Z" fill="white"/>
<path d="M44.187 39.354L44.0995 39.2529H43.9459H43.7923L43.7049 39.354C43.7049 39.354 43.6281 39.3323 43.5918 39.3692C43.5918 39.3692 43.6942 39.3598 43.7294 39.4181C43.7294 39.4181 43.8243 39.4366 43.8371 39.4366C43.8499 39.4366 43.8777 39.4258 43.9033 39.4171C43.9289 39.4084 43.9459 39.4083 43.9459 39.4083C43.9459 39.4083 43.963 39.4084 43.9886 39.4171C44.0142 39.4258 44.0419 39.4366 44.0547 39.4366C44.0675 39.4366 44.1625 39.4181 44.1625 39.4181C44.1977 39.3598 44.3001 39.3692 44.3001 39.3692C44.2638 39.3323 44.187 39.354 44.187 39.354Z" fill="url(#paint1_linear_37_61)"/>
<path d="M49.1597 84.0186H54.9157V97.013H49.6559C49.6559 97.013 45.8723 96.8456 44.7186 92.572C44.0612 90.767 44.7186 88.4596 45.0536 87.6347C45.3823 86.6547 46.5298 84.676 49.1597 84.0186Z" fill="#2830E1"/>
<path fill-rule="evenodd" clip-rule="evenodd" d="M68.8963 32.363C69.5475 26.9357 76.296 18.3823 81.5558 19.5298C86.8156 20.6835 91.7529 27.7545 90.7667 33.8454C89.7743 39.9302 85.0107 47.9874 77.4497 47.0074C69.8763 46.015 68.2388 39.1053 68.8963 32.363ZM53.1106 46.015C47.4725 46.015 42.9135 39.5456 42.9135 31.5443C42.9135 23.5367 47.4725 17.0674 53.1106 17.0674C58.7488 17.0674 63.3077 23.5367 63.3077 31.5443C63.3077 39.5456 58.7488 46.015 53.1106 46.015ZM21.5331 51.4485C21.5331 51.4485 22.6868 39.434 30.9115 38.7827C37.4863 38.1252 42.2561 45.3575 42.7523 49.4698C43.081 52.0997 44.3898 64.2817 34.1989 66.4153C24.163 68.5552 20.3795 56.8695 21.5331 51.4485ZM97.3414 72.835C86.1643 72.9963 85.6681 65.2617 85.6681 59.6731C85.6681 53.7496 86.8156 45.525 95.859 45.525C104.741 45.525 107.21 54.2396 107.21 57.2045C107.21 60.0018 108.357 72.5063 97.3414 72.835ZM99.1526 102.936C93.5579 115.931 73.1699 109.182 73.1699 109.182C73.1699 109.182 65.6089 106.72 56.8942 108.692C48.1734 110.504 40.6062 109.846 40.6062 109.846C40.6062 109.846 30.4153 110.007 27.4566 97.1741C24.6593 84.1796 37.6475 77.1087 38.6337 75.955C39.6262 74.64 46.5297 70.0315 50.8095 62.7992C55.0769 55.3933 68.2388 49.6373 77.4497 63.9467C84.1857 73.6538 95.859 82.6972 95.859 82.6972C95.859 82.6972 104.574 89.4456 99.1526 102.936ZM61.1616 102.279V70.1989L55.2443 70.0315V78.7523H48.1734C48.1734 78.7523 41.1024 79.2423 38.6337 87.3057C37.6475 92.733 39.2974 95.8591 39.6262 96.5166C39.7874 97.1741 42.0886 101.125 47.8446 102.279H61.1616ZM85.5007 102.111V79.5773H78.9259V96.5166H72.6737C72.6737 96.5166 70.7012 96.1879 70.3725 94.5442V79.4098L64.1265 79.5773V96.3554C64.1265 96.3554 64.4552 100.629 70.3725 102.111H85.5007Z" fill="#2830E1"/>
<defs>
<linearGradient id="paint0_linear_37_61" x1="43.5205" y1="90.9437" x2="128.854" y2="90.9437" gradientUnits="userSpaceOnUse">
<stop stop-color="#FF5500"/>
<stop offset="0.409877" stop-color="#FF5500"/>
<stop offset="0.581981" stop-color="#FF2000"/>
<stop offset="1" stop-color="#FF2000"/>
</linearGradient>
<linearGradient id="paint1_linear_37_61" x1="45.1135" y1="48.5671" x2="114.418" y2="48.5671" gradientUnits="userSpaceOnUse">
<stop stop-color="#FF452A"/>
<stop offset="1" stop-color="#FF2000"/>
</linearGradient>
</defs>
</svg>
