<svg width="128" height="128" viewBox="0 0 128 128" fill="none" xmlns="http://www.w3.org/2000/svg">
<g clip-path="url(#clip0_38_102)">
<path d="M10.6667 4.74074H123.259V117.333H10.6667V4.74074Z" fill="white"/>
<path d="M94.1845 44.8263C92.8242 44.0007 91.5371 43.8841 91.5257 43.8841L91.3778 43.877C83.4332 43.3401 74.5493 43.067 64.9714 43.067L63.0286 43.0677C53.4514 43.0677 44.5668 43.3401 36.6229 43.8777L36.475 43.8848C36.4636 43.8848 35.1765 44.0014 33.8162 44.827C31.7262 46.0949 30.4448 48.4309 30.0082 51.7675C28.6094 62.4498 29.3995 75.8855 30.0345 86.683C30.4427 93.6228 34.6745 95.3579 41.8468 96.0092C43.3444 96.1465 51.4425 96.8242 64.0007 96.8277C76.5589 96.8249 84.6571 96.1458 86.1554 96.0092C93.3276 95.3579 97.5595 93.6228 97.9669 86.683C98.6027 75.8855 99.392 62.4498 97.9932 51.7675C97.5559 48.4302 96.2745 46.0942 94.1845 44.8263ZM39.8805 68.8149C39.4928 69.0056 39.0712 69.1179 38.64 69.1454C38.2087 69.1729 37.7763 69.1151 37.3675 68.9752C36.9586 68.8353 36.5814 68.616 36.2574 68.3301C35.9335 68.0442 35.6691 67.6971 35.4795 67.3088C35.2893 66.9209 35.1775 66.4994 35.1503 66.0683C35.1231 65.6372 35.1811 65.205 35.3209 64.7963C35.4608 64.3876 35.6798 64.0105 35.9654 63.6864C36.251 63.3624 36.5977 63.0978 36.9856 62.9077C37.2686 62.7684 44.0263 59.4738 52.3385 56.9266C52.7515 56.8 53.1855 56.756 53.6155 56.7971C54.0455 56.8382 54.4633 56.9637 54.8448 57.1662C55.2264 57.3688 55.5643 57.6445 55.8394 57.9777C56.1144 58.3108 56.3211 58.6949 56.4476 59.1079C56.5742 59.521 56.6182 59.9549 56.5771 60.3849C56.536 60.815 56.4106 61.2327 56.208 61.6143C56.0055 61.9958 55.7297 62.3338 55.3966 62.6088C55.0634 62.8838 54.6793 63.0905 54.2663 63.2171C46.4476 65.6128 39.9452 68.7829 39.8805 68.8149ZM77.2274 73.7991C77.1662 74.1092 75.6622 81.3881 70.1525 81.3881C67.1744 81.3881 65.1385 79.4368 63.9047 77.6697C62.6972 79.4347 60.7374 81.3881 57.9804 81.3881C53.0453 81.3881 51.0172 74.6844 50.8025 73.92C50.6947 73.5189 50.7494 73.0916 50.9546 72.7305C51.1597 72.3694 51.4989 72.1038 51.8986 71.991C52.2983 71.8783 52.7263 71.9276 53.0899 72.1283C53.4535 72.329 53.7234 72.6648 53.8411 73.0631C54.2229 74.4036 55.8037 78.23 57.9797 78.23C60.2539 78.23 61.9925 74.9461 62.422 73.7956C62.5347 73.4942 62.7368 73.2345 63.0011 73.0511C63.2654 72.8677 63.5794 72.7695 63.9012 72.7694H63.9097C64.5717 72.7737 65.1612 73.1897 65.386 73.8119C65.4009 73.8517 67.0478 78.2308 70.1518 78.2308C73.0496 78.2308 74.1191 73.2373 74.1298 73.1861C74.1697 72.9826 74.2495 72.789 74.3644 72.6164C74.4794 72.4437 74.6273 72.2955 74.7996 72.1801C74.972 72.0648 75.1655 71.9846 75.3689 71.9442C75.5723 71.9037 75.7817 71.9039 75.9851 71.9445C76.1884 71.9847 76.3819 72.0645 76.5544 72.1795C76.7269 72.2944 76.8751 72.4422 76.9905 72.6144C77.1058 72.7867 77.1861 72.9799 77.2268 73.1832C77.2674 73.3865 77.2676 73.5958 77.2274 73.7991ZM92.5212 67.3081C92.1374 68.0913 91.4582 68.69 90.633 68.9724C89.8078 69.2549 88.9041 69.198 88.1209 68.8142C88.0555 68.7822 81.5275 65.6036 73.7358 63.2156C72.9018 62.9599 72.2034 62.3834 71.7943 61.6129C71.3852 60.8424 71.2988 59.941 71.5541 59.1069C71.6805 58.6938 71.887 58.3097 72.1619 57.9765C72.4368 57.6433 72.7747 57.3676 73.1562 57.165C73.5377 56.9625 73.9554 56.8371 74.3854 56.7961C74.8154 56.755 75.2493 56.7991 75.6622 56.9259C83.9744 59.4731 90.7314 62.7676 91.0165 62.907C91.7997 63.2911 92.3982 63.9706 92.6804 64.7959C92.9626 65.6213 92.9053 66.5249 92.5212 67.3081Z" fill="#F16C8D"/>
<path d="M110.933 0H17.0667C7.64089 0 0 7.64089 0 17.0667V110.933C0 120.36 7.64089 128 17.0667 128H110.933C120.36 128 128 120.36 128 110.933V17.0667C128 7.6416 120.36 0 110.933 0ZM105.85 87.146C105.485 93.3376 102.819 98.0672 98.139 100.825C94.5721 102.927 90.6148 103.531 86.87 103.872C82.3623 104.282 73.9925 104.719 64 104.722C54.0082 104.719 45.6377 104.282 41.13 103.872C37.3852 103.531 33.4279 102.927 29.8617 100.825C25.1819 98.0672 22.5159 93.3383 22.1518 87.1467C21.4983 76.0171 20.6834 62.1668 22.1788 50.7428C23.6587 39.4396 31.9154 36.1628 36.1529 35.9972C39.9191 35.7461 43.6892 35.5569 47.4617 35.4297C46.4149 34.2443 44.7004 32.1906 43.4596 30.1362C41.5516 26.9781 44.6443 24.3463 44.6443 24.3463C44.6443 24.3463 47.9332 21.5175 50.8288 25.0702C53.0091 27.7461 56.1593 32.8476 57.5815 35.2028L64.9714 35.173C66.8132 35.173 68.6286 35.1829 70.4185 35.2028C71.8407 32.8476 74.9909 27.7468 77.1712 25.0702C80.0661 21.5175 83.3557 24.3463 83.3557 24.3463C83.3557 24.3463 86.4476 26.9781 84.5397 30.1362C83.2989 32.1906 81.5844 34.2443 80.5376 35.4297C84.4765 35.5655 88.2546 35.7547 91.8464 35.9964C96.0846 36.1628 104.341 39.4396 105.82 50.7428C107.317 62.166 106.503 76.0164 105.85 87.146Z" fill="#F16C8D"/>
</g>
<defs>
<clipPath id="clip0_38_102">
<rect width="128" height="128" fill="white"/>
</clipPath>
</defs>
</svg>
