<svg width="128" height="128" viewBox="0 0 128 128" fill="none" xmlns="http://www.w3.org/2000/svg">
<path fill-rule="evenodd" clip-rule="evenodd" d="M44.344 39.4975L44.3674 39.4388C44.3674 39.4388 44.3376 39.4062 44.3013 39.3692C44.265 39.3323 44.1882 39.354 44.1882 39.354L44.1008 39.2529H43.9472H43.7936L43.7061 39.354C43.7061 39.354 43.6293 39.3323 43.593 39.3692C43.5568 39.4062 43.5269 39.4388 43.5269 39.4388L43.5504 39.4975L43.5205 39.5844C43.5205 39.5844 43.6083 39.9234 43.6186 39.9648C43.6389 40.0463 43.6528 40.0778 43.7104 40.1191C43.768 40.1604 43.8725 40.2321 43.8896 40.243C43.9066 40.2538 43.928 40.2724 43.9472 40.2724C43.9664 40.2724 43.9877 40.2538 44.0048 40.243C44.0218 40.2321 44.1264 40.1604 44.184 40.1191C44.2416 40.0778 44.2554 40.0463 44.2757 39.9648C44.286 39.9234 44.3738 39.5844 44.3738 39.5844L44.344 39.4975Z" fill="url(#paint0_linear_37_60)"/>
<path fill-rule="evenodd" clip-rule="evenodd" d="M43.9462 39.8872C43.9521 39.8872 43.9895 39.9007 44.0196 39.9166C44.0497 39.9324 44.0715 39.9436 44.0784 39.9481C44.0854 39.9525 44.0811 39.9609 44.0748 39.9654C44.0684 39.97 43.9832 40.0373 43.9749 40.0447C43.9666 40.0521 43.9545 40.0644 43.9462 40.0644C43.938 40.0644 43.9258 40.0521 43.9175 40.0447C43.9092 40.0373 43.824 39.97 43.8177 39.9654C43.8113 39.9609 43.8071 39.9525 43.814 39.9481C43.821 39.9436 43.8428 39.9324 43.8728 39.9166C43.9029 39.9007 43.9404 39.8872 43.9462 39.8872ZM43.9467 39.4082C43.9496 39.4083 43.9657 39.4091 43.9889 39.417C44.0145 39.4256 44.0422 39.4365 44.055 39.4365C44.0678 39.4365 44.1628 39.418 44.1628 39.418C44.1628 39.418 44.2753 39.5566 44.2753 39.5862C44.2753 39.6158 44.2611 39.6236 44.2469 39.639C44.2326 39.6544 44.1705 39.7217 44.1625 39.7303C44.1545 39.7389 44.1379 39.752 44.1477 39.7756C44.1575 39.7991 44.1719 39.8291 44.1559 39.8595C44.1398 39.89 44.1124 39.9103 44.0948 39.9069C44.0772 39.9035 44.0358 39.8815 44.0206 39.8715C44.0054 39.8614 43.9572 39.8209 43.9572 39.8055C43.9572 39.79 44.007 39.7622 44.0162 39.7558C44.0254 39.7495 44.0674 39.7251 44.0683 39.7155C44.0691 39.7059 44.0688 39.7031 44.0564 39.6793C44.044 39.6556 44.0217 39.624 44.0254 39.6029C44.0292 39.5819 44.0651 39.5709 44.0908 39.561C44.1165 39.5512 44.1659 39.5325 44.172 39.5296C44.1782 39.5267 44.1766 39.5239 44.1579 39.5221C44.1392 39.5203 44.0862 39.5132 44.0622 39.52C44.0383 39.5267 43.9974 39.5371 43.9941 39.5426C43.9908 39.548 43.9879 39.5482 43.9913 39.5671C43.9947 39.5861 44.0122 39.6768 44.0139 39.6929C44.0156 39.709 44.0189 39.7197 44.0019 39.7236C43.9848 39.7276 43.9561 39.7345 43.9462 39.7345C43.9364 39.7345 43.9076 39.7276 43.8906 39.7236C43.8735 39.7197 43.8769 39.709 43.8786 39.6929C43.8803 39.6768 43.8978 39.5861 43.9012 39.5671C43.9046 39.5482 43.9016 39.548 43.8983 39.5426C43.895 39.5371 43.8541 39.5267 43.8302 39.52C43.8063 39.5132 43.7532 39.5203 43.7345 39.5221C43.7158 39.5239 43.7142 39.5267 43.7204 39.5296C43.7266 39.5325 43.776 39.5512 43.8017 39.561C43.8273 39.5709 43.8633 39.5819 43.867 39.6029C43.8707 39.624 43.8484 39.6556 43.836 39.6793C43.8236 39.7031 43.8233 39.7059 43.8242 39.7155C43.825 39.7251 43.867 39.7495 43.8762 39.7558C43.8854 39.7622 43.9352 39.79 43.9352 39.8055C43.9352 39.8209 43.887 39.8614 43.8718 39.8715C43.8566 39.8815 43.8153 39.9035 43.7977 39.9069C43.7801 39.9103 43.7526 39.89 43.7366 39.8595C43.7206 39.8291 43.735 39.7991 43.7447 39.7756C43.7545 39.752 43.7379 39.7389 43.7299 39.7303C43.7219 39.7217 43.6598 39.6544 43.6456 39.639C43.6313 39.6236 43.6172 39.6158 43.6172 39.5862C43.6172 39.5566 43.7297 39.418 43.7297 39.418C43.7297 39.418 43.8246 39.4365 43.8374 39.4365C43.8502 39.4365 43.878 39.4256 43.9036 39.417C43.9267 39.4091 43.9429 39.4083 43.9458 39.4082H43.9467Z" fill="white"/>
<path d="M44.187 39.354L44.0995 39.2529H43.9459H43.7923L43.7049 39.354C43.7049 39.354 43.6281 39.3323 43.5918 39.3692C43.5918 39.3692 43.6942 39.3598 43.7294 39.4181C43.7294 39.4181 43.8243 39.4366 43.8371 39.4366C43.8499 39.4366 43.8777 39.4258 43.9033 39.4171C43.9289 39.4084 43.9459 39.4083 43.9459 39.4083C43.9459 39.4083 43.963 39.4084 43.9886 39.4171C44.0142 39.4258 44.0419 39.4366 44.0547 39.4366C44.0675 39.4366 44.1625 39.4181 44.1625 39.4181C44.1977 39.3598 44.3001 39.3692 44.3001 39.3692C44.2638 39.3323 44.187 39.354 44.187 39.354Z" fill="url(#paint1_linear_37_60)"/>
<path fill-rule="evenodd" clip-rule="evenodd" d="M64.6712 46.669C62.9411 46.8701 61.6216 48.2751 61.499 50.0471C61.4461 50.8105 61.4627 50.8623 63.1932 55.3156C67.1305 65.4475 68.0844 67.886 68.2448 68.2292C68.6335 69.0604 69.18 69.8423 69.8628 70.5441C70.3868 71.0826 70.7324 71.3722 71.3168 71.7626C72.3441 72.4486 72.8538 72.6383 76.8509 73.8218C80.7446 74.9747 82.8718 75.7409 84.7048 76.6507C87.0796 77.8294 88.7364 79.1701 89.7845 80.7609C90.5364 81.9023 91.2024 83.9491 91.4921 86.0095C91.6054 86.8149 91.6062 88.5953 91.4935 89.3234C91.249 90.9036 90.7607 92.2278 90.0137 93.336C89.6164 93.9253 89.7547 93.8267 90.3323 93.1085C91.9669 91.0761 93.632 87.6026 94.4816 84.4528C95.5099 80.6406 95.6497 76.5471 94.8841 72.6726C93.3932 65.1276 88.6301 58.6162 81.9218 54.9525C81.5003 54.7222 79.8948 53.8807 77.7183 52.7491C77.388 52.5773 76.9376 52.3422 76.7175 52.2266C76.4973 52.1109 76.0469 51.8758 75.7167 51.7041C75.3864 51.5324 74.4356 51.0371 73.6038 50.6034C72.772 50.1696 71.8414 49.6843 71.5356 49.5249C70.6034 49.0389 69.978 48.7124 69.5116 48.4683C67.3549 47.3392 66.442 46.8828 66.1818 46.8036C65.9088 46.7206 65.2153 46.614 65.0413 46.6283C65.0047 46.6313 64.8381 46.6496 64.6712 46.669Z" fill="url(#paint2_radial_37_60)"/>
<path d="M69.3731 84.4929C69.2535 84.5637 69.0858 84.6662 69.0002 84.7206C68.9145 84.775 68.7244 84.8932 68.5776 84.9833C68.0389 85.3139 66.6061 86.1968 65.3749 86.9568C64.5658 87.4563 64.4457 87.5307 63.4179 88.1686C63.0508 88.3963 62.6605 88.6363 62.5504 88.7019C62.4403 88.7675 61.97 89.0572 61.5051 89.3456C61.0403 89.6339 60.2297 90.1344 59.7037 90.4577C59.1777 90.7809 58.237 91.3613 57.6132 91.7473C56.9893 92.1332 56.1686 92.6393 55.7895 92.8718C55.4102 93.1043 55.06 93.3289 55.011 93.3709C54.9383 93.4332 51.5657 95.5224 49.8735 96.5533C48.5882 97.3363 47.1014 97.86 45.5794 98.0657C44.8708 98.1614 43.5299 98.1617 42.8233 98.0662C40.9074 97.8075 39.1424 97.093 37.6308 95.9644C37.0379 95.5216 35.9216 94.4062 35.4949 93.83C34.4892 92.4723 33.8386 91.016 33.5017 89.3682C33.4242 88.989 33.3508 88.6688 33.3388 88.6565C33.3073 88.6247 33.3641 89.1976 33.4668 89.9465C33.5735 90.7254 33.8009 91.8519 34.0458 92.8155C35.941 100.272 41.334 106.337 48.6347 109.222C50.737 110.053 52.8584 110.576 55.1667 110.833C56.034 110.93 58.4891 110.969 59.3943 110.9C63.5456 110.585 67.1602 109.364 70.8683 107.02C71.1986 106.811 71.8191 106.42 72.2472 106.151C72.6754 105.881 73.2157 105.538 73.4482 105.389C73.6806 105.24 73.9608 105.064 74.0709 104.998C74.181 104.931 74.4012 104.793 74.5602 104.69C74.7193 104.587 75.3998 104.157 76.0725 103.734L78.7628 102.034L79.6865 101.451L79.7198 101.43L79.8215 101.366L79.8699 101.335L80.55 100.905L82.9003 99.4209C85.8951 97.539 86.7881 96.8784 88.1794 95.5155C88.7595 94.9474 89.634 93.9776 89.6774 93.8545C89.6862 93.8295 89.8417 93.5897 90.0228 93.3216C90.7591 92.2322 91.2501 90.8976 91.4935 89.3238C91.6062 88.5957 91.6055 86.8153 91.4922 86.0099C91.2732 84.4528 90.7756 82.6866 90.2392 81.5619C89.3594 79.7178 87.4854 78.0421 84.7932 76.6926C84.0499 76.3199 83.2823 75.979 83.1966 75.9834C83.156 75.9856 80.6507 77.5168 77.6294 79.3865C74.6081 81.2561 71.9859 82.8789 71.8024 82.9927C71.6189 83.1067 71.3037 83.2993 71.1018 83.4206L69.3731 84.4929Z" fill="url(#paint3_radial_37_60)"/>
<path d="M33.2932 75.5229L33.3062 88.5446L33.4747 89.3008C34.0017 91.665 34.9148 93.3695 36.5022 94.9527C37.2488 95.6974 37.8198 96.1464 38.6289 96.6251C40.341 97.6383 42.1836 98.1382 44.202 98.1373C46.3159 98.1362 48.1446 97.6089 50.029 96.4571C50.347 96.2628 51.593 95.4956 52.7978 94.7523L54.9885 93.4009V77.9511V62.5013L54.9879 48.3676C54.9874 39.3505 54.9709 33.9955 54.9424 33.5754C54.7627 30.9353 53.6586 28.5082 51.802 26.6724C51.2322 26.109 50.7453 25.7327 49.295 24.7346C48.5733 24.238 47.2522 23.3281 46.3593 22.7128C45.4663 22.0974 43.9952 21.0836 43.09 20.4599C42.1848 19.8362 40.8937 18.9464 40.221 18.4826C38.8194 17.5162 38.7097 17.449 38.2861 17.2974C37.735 17.1003 37.151 17.0279 36.5958 17.0878C34.9776 17.2626 33.6822 18.431 33.3455 20.0194C33.2931 20.2666 33.2834 23.5555 33.2828 41.4063L33.282 62.5013H33.2803L33.2932 75.5229Z" fill="url(#paint4_linear_37_60)"/>
<defs>
<linearGradient id="paint0_linear_37_60" x1="43.5205" y1="90.9437" x2="128.854" y2="90.9437" gradientUnits="userSpaceOnUse">
<stop stop-color="#FF5500"/>
<stop offset="0.409877" stop-color="#FF5500"/>
<stop offset="0.581981" stop-color="#FF2000"/>
<stop offset="1" stop-color="#FF2000"/>
</linearGradient>
<linearGradient id="paint1_linear_37_60" x1="45.1135" y1="48.5671" x2="114.418" y2="48.5671" gradientUnits="userSpaceOnUse">
<stop stop-color="#FF452A"/>
<stop offset="1" stop-color="#FF2000"/>
</linearGradient>
<radialGradient id="paint2_radial_37_60" cx="0" cy="0" r="1" gradientUnits="userSpaceOnUse" gradientTransform="translate(93.242 83.274) rotate(-130.909) scale(48.4975 34.8961)">
<stop stop-color="#00CACC"/>
<stop offset="1" stop-color="#048FCE"/>
</radialGradient>
<radialGradient id="paint3_radial_37_60" cx="0" cy="0" r="1" gradientUnits="userSpaceOnUse" gradientTransform="translate(41.4222 100.955) rotate(-23.1954) scale(52.4572 87.4216)">
<stop stop-color="#00BBEC"/>
<stop offset="1" stop-color="#2756A9"/>
</radialGradient>
<linearGradient id="paint4_linear_37_60" x1="44.1344" y1="17.0674" x2="44.1344" y2="98.1373" gradientUnits="userSpaceOnUse">
<stop stop-color="#00BBEC"/>
<stop offset="1" stop-color="#2756A9"/>
</linearGradient>
</defs>
</svg>
