<svg width="12" height="12" viewBox="0 0 12 12" fill="none" xmlns="http://www.w3.org/2000/svg">
<path fill-rule="evenodd" clip-rule="evenodd" d="M7.93574 2.0946C7.99784 2.03352 8.0816 1.99951 8.1687 2.00001C8.2558 2.0005 8.33917 2.03545 8.40058 2.09722L9.9028 3.59944C9.93354 3.62976 9.958 3.66585 9.97478 3.70564C9.99155 3.74543 10.0003 3.78813 10.0006 3.83131C10.0008 3.8745 9.99252 3.9173 9.9762 3.95728C9.95987 3.99725 9.93582 4.03362 9.90542 4.06428L5.21232 8.75739L3.24263 6.7877L7.93574 2.0946ZM2.58607 7.44426L4.55576 9.41395L2.25122 9.98975C2.07395 10.0344 1.96496 9.92935 2.01027 9.74879L2.58607 7.44426Z" fill="#44546F"/>
</svg>
