<svg width="128" height="128" viewBox="0 0 128 128" fill="none" xmlns="http://www.w3.org/2000/svg">
<path fill-rule="evenodd" clip-rule="evenodd" d="M44.344 39.4975L44.3674 39.4388C44.3674 39.4388 44.3376 39.4062 44.3013 39.3692C44.265 39.3323 44.1882 39.354 44.1882 39.354L44.1008 39.2529H43.9472H43.7936L43.7061 39.354C43.7061 39.354 43.6293 39.3323 43.593 39.3692C43.5568 39.4062 43.5269 39.4388 43.5269 39.4388L43.5504 39.4975L43.5205 39.5844C43.5205 39.5844 43.6083 39.9234 43.6186 39.9648C43.6389 40.0463 43.6528 40.0778 43.7104 40.1191C43.768 40.1604 43.8725 40.2321 43.8896 40.243C43.9066 40.2538 43.928 40.2724 43.9472 40.2724C43.9664 40.2724 43.9877 40.2538 44.0048 40.243C44.0218 40.2321 44.1264 40.1604 44.184 40.1191C44.2416 40.0778 44.2554 40.0463 44.2757 39.9648C44.286 39.9234 44.3738 39.5844 44.3738 39.5844L44.344 39.4975Z" fill="url(#paint0_linear_37_59)"/>
<path fill-rule="evenodd" clip-rule="evenodd" d="M43.9462 39.8872C43.9521 39.8872 43.9895 39.9007 44.0196 39.9166C44.0497 39.9324 44.0715 39.9436 44.0784 39.9481C44.0854 39.9525 44.0811 39.9609 44.0748 39.9654C44.0684 39.97 43.9832 40.0373 43.9749 40.0447C43.9666 40.0521 43.9545 40.0644 43.9462 40.0644C43.938 40.0644 43.9258 40.0521 43.9175 40.0447C43.9092 40.0373 43.824 39.97 43.8177 39.9654C43.8113 39.9609 43.8071 39.9525 43.814 39.9481C43.821 39.9436 43.8428 39.9324 43.8728 39.9166C43.9029 39.9007 43.9404 39.8872 43.9462 39.8872ZM43.9467 39.4082C43.9496 39.4083 43.9657 39.4091 43.9889 39.417C44.0145 39.4256 44.0422 39.4365 44.055 39.4365C44.0678 39.4365 44.1628 39.418 44.1628 39.418C44.1628 39.418 44.2753 39.5566 44.2753 39.5862C44.2753 39.6158 44.2611 39.6236 44.2469 39.639C44.2326 39.6544 44.1705 39.7217 44.1625 39.7303C44.1545 39.7389 44.1379 39.752 44.1477 39.7756C44.1575 39.7991 44.1719 39.8291 44.1559 39.8595C44.1398 39.89 44.1124 39.9103 44.0948 39.9069C44.0772 39.9035 44.0358 39.8815 44.0206 39.8715C44.0054 39.8614 43.9572 39.8209 43.9572 39.8055C43.9572 39.79 44.007 39.7622 44.0162 39.7558C44.0254 39.7495 44.0674 39.7251 44.0683 39.7155C44.0691 39.7059 44.0688 39.7031 44.0564 39.6793C44.044 39.6556 44.0217 39.624 44.0254 39.6029C44.0292 39.5819 44.0651 39.5709 44.0908 39.561C44.1165 39.5512 44.1659 39.5325 44.172 39.5296C44.1782 39.5267 44.1766 39.5239 44.1579 39.5221C44.1392 39.5203 44.0862 39.5132 44.0622 39.52C44.0383 39.5267 43.9974 39.5371 43.9941 39.5426C43.9908 39.548 43.9879 39.5482 43.9913 39.5671C43.9947 39.5861 44.0122 39.6768 44.0139 39.6929C44.0156 39.709 44.0189 39.7197 44.0019 39.7236C43.9848 39.7276 43.9561 39.7345 43.9462 39.7345C43.9364 39.7345 43.9076 39.7276 43.8906 39.7236C43.8735 39.7197 43.8769 39.709 43.8786 39.6929C43.8803 39.6768 43.8978 39.5861 43.9012 39.5671C43.9046 39.5482 43.9016 39.548 43.8983 39.5426C43.895 39.5371 43.8541 39.5267 43.8302 39.52C43.8063 39.5132 43.7532 39.5203 43.7345 39.5221C43.7158 39.5239 43.7142 39.5267 43.7204 39.5296C43.7266 39.5325 43.776 39.5512 43.8017 39.561C43.8273 39.5709 43.8633 39.5819 43.867 39.6029C43.8707 39.624 43.8484 39.6556 43.836 39.6793C43.8236 39.7031 43.8233 39.7059 43.8242 39.7155C43.825 39.7251 43.867 39.7495 43.8762 39.7558C43.8854 39.7622 43.9352 39.79 43.9352 39.8055C43.9352 39.8209 43.887 39.8614 43.8718 39.8715C43.8566 39.8815 43.8153 39.9035 43.7977 39.9069C43.7801 39.9103 43.7526 39.89 43.7366 39.8595C43.7206 39.8291 43.735 39.7991 43.7447 39.7756C43.7545 39.752 43.7379 39.7389 43.7299 39.7303C43.7219 39.7217 43.6598 39.6544 43.6456 39.639C43.6313 39.6236 43.6172 39.6158 43.6172 39.5862C43.6172 39.5566 43.7297 39.418 43.7297 39.418C43.7297 39.418 43.8246 39.4365 43.8374 39.4365C43.8502 39.4365 43.878 39.4256 43.9036 39.417C43.9267 39.4091 43.9429 39.4083 43.9458 39.4082H43.9467Z" fill="white"/>
<path d="M44.187 39.354L44.0995 39.2529H43.9459H43.7923L43.7049 39.354C43.7049 39.354 43.6281 39.3323 43.5918 39.3692C43.5918 39.3692 43.6942 39.3598 43.7294 39.4181C43.7294 39.4181 43.8243 39.4366 43.8371 39.4366C43.8499 39.4366 43.8777 39.4258 43.9033 39.4171C43.9289 39.4084 43.9459 39.4083 43.9459 39.4083C43.9459 39.4083 43.963 39.4084 43.9886 39.4171C44.0142 39.4258 44.0419 39.4366 44.0547 39.4366C44.0675 39.4366 44.1625 39.4181 44.1625 39.4181C44.1977 39.3598 44.3001 39.3692 44.3001 39.3692C44.2638 39.3323 44.187 39.354 44.187 39.354Z" fill="url(#paint1_linear_37_59)"/>
<mask id="mask0_37_59" style="mask-type:luminance" maskUnits="userSpaceOnUse" x="17" y="17" width="93" height="94">
<path d="M108.589 55.4664H64.8552V73.5997H90.0285C87.6819 85.1197 77.8685 91.7331 64.8552 91.7331C49.4952 91.7331 37.1219 79.3597 37.1219 63.9997C37.1219 48.6397 49.4952 36.2664 64.8552 36.2664C71.4685 36.2664 77.4419 38.6131 82.1352 42.4531L95.7885 28.7997C87.4685 21.5464 76.8019 17.0664 64.8552 17.0664C38.8285 17.0664 17.9219 37.9731 17.9219 63.9997C17.9219 90.0264 38.8285 110.933 64.8552 110.933C88.3219 110.933 109.655 93.8664 109.655 63.9997C109.655 61.2264 109.229 58.2397 108.589 55.4664Z" fill="white"/>
</mask>
<g mask="url(#mask0_37_59)">
<path d="M13.6543 91.7333V36.2666L49.921 63.9999L13.6543 91.7333Z" fill="#FBBC05"/>
</g>
<mask id="mask1_37_59" style="mask-type:luminance" maskUnits="userSpaceOnUse" x="17" y="17" width="93" height="94">
<path d="M108.589 55.4664H64.8552V73.5997H90.0285C87.6819 85.1197 77.8685 91.7331 64.8552 91.7331C49.4952 91.7331 37.1219 79.3597 37.1219 63.9997C37.1219 48.6397 49.4952 36.2664 64.8552 36.2664C71.4685 36.2664 77.4419 38.6131 82.1352 42.4531L95.7885 28.7997C87.4685 21.5464 76.8019 17.0664 64.8552 17.0664C38.8285 17.0664 17.9219 37.9731 17.9219 63.9997C17.9219 90.0264 38.8285 110.933 64.8552 110.933C88.3219 110.933 109.655 93.8664 109.655 63.9997C109.655 61.2264 109.229 58.2397 108.589 55.4664Z" fill="white"/>
</mask>
<g mask="url(#mask1_37_59)">
<path d="M13.6543 36.2665L49.921 63.9998L64.8543 50.9865L116.054 42.6665V12.7998H13.6543V36.2665Z" fill="#EA4335"/>
</g>
<mask id="mask2_37_59" style="mask-type:luminance" maskUnits="userSpaceOnUse" x="17" y="17" width="93" height="94">
<path d="M108.589 55.4664H64.8552V73.5997H90.0285C87.6819 85.1197 77.8685 91.7331 64.8552 91.7331C49.4952 91.7331 37.1219 79.3597 37.1219 63.9997C37.1219 48.6397 49.4952 36.2664 64.8552 36.2664C71.4685 36.2664 77.4419 38.6131 82.1352 42.4531L95.7885 28.7997C87.4685 21.5464 76.8019 17.0664 64.8552 17.0664C38.8285 17.0664 17.9219 37.9731 17.9219 63.9997C17.9219 90.0264 38.8285 110.933 64.8552 110.933C88.3219 110.933 109.655 93.8664 109.655 63.9997C109.655 61.2264 109.229 58.2397 108.589 55.4664Z" fill="white"/>
</mask>
<g mask="url(#mask2_37_59)">
<path d="M13.6543 91.7331L77.6543 42.6665L94.5076 44.7998L116.054 12.7998V115.2H13.6543V91.7331Z" fill="#34A853"/>
</g>
<mask id="mask3_37_59" style="mask-type:luminance" maskUnits="userSpaceOnUse" x="17" y="17" width="93" height="94">
<path d="M108.589 55.4664H64.8552V73.5997H90.0285C87.6819 85.1197 77.8685 91.7331 64.8552 91.7331C49.4952 91.7331 37.1219 79.3597 37.1219 63.9997C37.1219 48.6397 49.4952 36.2664 64.8552 36.2664C71.4685 36.2664 77.4419 38.6131 82.1352 42.4531L95.7885 28.7997C87.4685 21.5464 76.8019 17.0664 64.8552 17.0664C38.8285 17.0664 17.9219 37.9731 17.9219 63.9997C17.9219 90.0264 38.8285 110.933 64.8552 110.933C88.3219 110.933 109.655 93.8664 109.655 63.9997C109.655 61.2264 109.229 58.2397 108.589 55.4664Z" fill="white"/>
</mask>
<g mask="url(#mask3_37_59)">
<path d="M116.055 115.2L49.922 63.9999L41.3887 57.5999L116.055 36.2666V115.2Z" fill="#4285F4"/>
</g>
<defs>
<linearGradient id="paint0_linear_37_59" x1="43.5205" y1="90.9437" x2="128.854" y2="90.9437" gradientUnits="userSpaceOnUse">
<stop stop-color="#FF5500"/>
<stop offset="0.409877" stop-color="#FF5500"/>
<stop offset="0.581981" stop-color="#FF2000"/>
<stop offset="1" stop-color="#FF2000"/>
</linearGradient>
<linearGradient id="paint1_linear_37_59" x1="45.1135" y1="48.5671" x2="114.418" y2="48.5671" gradientUnits="userSpaceOnUse">
<stop stop-color="#FF452A"/>
<stop offset="1" stop-color="#FF2000"/>
</linearGradient>
</defs>
</svg>
