<svg width="128" height="128" viewBox="0 0 128 128" fill="none" xmlns="http://www.w3.org/2000/svg">
<g clip-path="url(#clip0_81_2969)">
<path d="M63.2135 15.6417C67.1194 14.9922 71.9157 16.3125 73.9891 19.9074C74.1508 23.4841 72.8823 26.9296 72.553 30.4758C78.2671 28.6006 83.5757 24.0116 89.927 25.2678C93.0524 25.6825 94.2538 31.296 90.8357 32.2778C84.8502 35.0251 78.2427 36.1045 72.0316 38.1718C71.0681 40.4495 71.6779 43.5139 71.3333 46.06C76.4833 44.6482 81.5937 40.5806 87.1462 42.6785C89.7441 43.2883 92.0492 45.5142 91.3937 48.4047C89.1617 57.912 93.2353 67.2698 93.9885 76.71C94.5038 79.4786 95.1685 83.4973 92.162 85.1652C89.1464 86.7081 87.5792 82.174 84.716 83.1741C79.2855 84.6377 73.7849 85.8787 68.4306 87.5954C67.7445 89.0437 66.8938 91.2208 64.9484 91.1385C63.3751 90.4829 62.2042 89.0315 61.5639 87.4856C59.0819 77.0637 58.7495 66.0501 55.3223 55.8843C52.2304 53.1553 54.9411 48.3346 58.9721 50.155C60.4601 50.7129 61.9786 50.3897 63.2867 49.5421C63.5062 46.435 63.8446 43.334 63.9971 40.2239C58.2861 40.9252 52.2183 43.3615 46.678 40.7758C44.7753 39.3793 47.3823 37.5528 48.8398 37.2693C53.8617 35.4672 59.2069 34.8056 64.2776 33.1468C64.366 28.4938 63.3171 23.9262 61.2803 19.7611C60.332 18.0536 61.2346 15.8582 63.2135 15.6417ZM76.9499 50.4385C72.5987 51.3502 68.4549 53.0821 64.238 54.4603C61.8475 54.9757 63.7044 58.0278 63.7806 59.7018C68.0189 58.595 72.1749 55.6129 76.709 57.0948C78.2976 57.4973 79.5477 59.7171 77.7061 60.6349C73.5318 62.443 69.0068 63.309 64.6771 64.6719C65.0125 66.6783 65.2625 68.7151 65.8113 70.6726C70.1411 69.5384 77.9988 65.0012 80.4716 70.9867C77.0017 74.4749 70.6869 74.1029 66.7688 76.527C67.0188 78.451 67.3329 80.375 67.7201 82.2777C73.2726 80.5397 78.5629 77.768 84.3867 77.0179C83.2768 68.9926 81.9139 60.9977 80.432 53.0364C80.2307 51.4082 78.7885 49.6092 76.9499 50.4385ZM33.03 23.5695C37.3842 23.109 43.3422 25.71 43.2507 30.7624C40.8145 38.0925 37.7836 45.258 35.14 52.5272C34.6216 53.5944 35.9663 54.189 36.442 54.9665C39.0551 57.3235 38.6953 61.0648 39.3966 64.2085C41.345 77.6277 42.9641 91.0928 44.5009 104.564C45.2845 106.881 44.7479 111.47 41.2261 110.571C37.2622 108.317 34.4387 103.698 34.4783 99.0571C33.588 86.5983 34.1033 73.8072 30.4931 61.7265C26.3859 66.8429 23.2575 73.1303 17.6349 76.7862C16.7476 77.6796 13.6313 78.0424 14.5186 76.1428C17.5373 68.6938 22.4068 62.132 25.3675 54.6433C29.1301 45.4562 31.5176 35.5557 31.0633 25.5697C30.9108 24.4568 32.0482 23.7006 33.03 23.5695Z" fill="#FFFEFE"/>
<path d="M45.8398 65.656C49.1146 64.9669 53.295 66.4366 53.9078 70.1047C55.3714 78.4807 56.2801 86.9543 57.6522 95.3486C73.3736 91.6378 89.0218 87.6038 104.694 83.6887C108.314 82.9203 113.391 84.1674 114.744 87.9819C115.772 90.3785 113.156 92.0342 111.122 92.1927C92.1289 93.7905 73.3553 97.7666 55.5635 104.658C52.737 105.536 49.2274 103.74 48.5718 100.807C49.822 92.6166 48.4682 84.3046 47.2211 76.1908C46.7667 73.0929 43.8792 71.117 42.9492 68.2722C43.0407 66.7476 44.4555 65.8634 45.8398 65.656Z" fill="#FFFEFE"/>
<path d="M60.789 0.134961C80.5078 -1.12739 100.391 7.79136 113.033 22.8907C125.51 37.6943 130.724 58.2913 126.623 77.2234C122.812 95.686 110.325 112.084 93.5826 120.726C76.4281 129.76 55.0719 130.471 37.4814 122.214C18.6163 113.731 4.4134 95.5945 1.03494 75.1531C-2.48072 56.5197 3.10836 36.5326 15.5519 22.2687C26.724 9.06591 43.5309 0.924689 60.789 0.134961ZM63.2131 15.6399C61.2342 15.8564 60.3317 18.0517 61.2799 19.7593C63.3168 23.9244 64.3657 28.492 64.2772 33.145C59.2065 34.8037 53.8614 35.4654 48.8394 37.2674C47.3819 37.551 44.7749 39.3774 46.6776 40.774C52.2179 43.3596 58.2857 40.9234 63.9967 40.2221C63.8443 43.3322 63.5058 46.4332 63.2863 49.5402C61.9782 50.3879 60.4597 50.7111 58.9717 50.1531C54.9408 48.3328 52.2301 53.1535 55.3219 55.8825C58.7491 66.0483 59.0815 77.0618 61.5635 87.4838C62.2038 89.0297 63.3747 90.4811 64.9481 91.1367C66.8934 91.219 67.7441 89.0419 68.4302 87.5936C73.7845 85.8769 79.2851 84.6359 84.7157 83.1723C87.5788 82.1722 89.1461 86.7063 92.1617 85.1634C95.1681 83.4955 94.5034 79.4767 93.9881 76.7081C93.235 67.268 89.1613 57.9101 91.3933 48.4029C92.0489 45.5123 89.7437 43.2865 87.1458 42.6766C81.5933 40.5788 76.483 44.6464 71.333 46.0581C71.6775 43.5121 71.0677 40.4477 72.0312 38.17C78.2423 36.1027 84.8498 35.0233 90.8353 32.276C94.2534 31.2942 93.052 25.6807 89.9267 25.266C83.5753 24.0098 78.2667 28.5987 72.5526 30.4739C72.8819 26.9278 74.1504 23.4823 73.9888 19.9056C71.9154 16.3107 67.1191 14.9904 63.2131 15.6399ZM33.0296 23.5676C32.0478 23.6987 30.9105 24.4549 31.0629 25.5679C31.5172 35.5538 29.1298 45.4544 25.3671 54.6415C22.4064 62.1302 17.5369 68.6919 14.5183 76.141C13.631 78.0406 16.7472 77.6777 17.6345 76.7843C23.2571 73.1284 26.3855 66.8411 30.4927 61.7246C34.1029 73.8053 33.5876 86.5965 34.478 99.0553C34.4383 103.696 37.2618 108.316 41.2257 110.569C44.7475 111.468 45.2841 106.879 44.5005 104.562C42.9637 91.0909 41.3446 77.6259 39.3962 64.2066C38.6949 61.063 39.0547 57.3217 36.4416 54.9647C35.9659 54.1871 34.6213 53.5926 35.1396 52.5254C37.7832 45.2562 40.8141 38.0907 43.2503 30.7606C43.3418 25.7081 37.3838 23.1072 33.0296 23.5676ZM45.8391 65.655C44.4548 65.8623 43.04 66.7466 42.9485 68.2711C43.8785 71.116 46.766 73.0918 47.2203 76.1898C48.4674 84.3035 49.8213 92.6155 48.5711 100.806C49.2267 103.739 52.7362 105.535 55.5628 104.657C73.3546 97.7655 92.1281 93.7894 111.121 92.1917C113.155 92.0331 115.771 90.3774 114.744 87.9808C113.39 84.1663 108.313 82.9192 104.694 83.6876C89.0211 87.6027 73.3728 91.6367 57.6515 95.3475C56.2793 86.9532 55.3707 78.4797 53.9071 70.1037C53.2942 66.4356 49.1139 64.9659 45.8391 65.655Z" fill="#F04133"/>
<path d="M76.9488 50.4384C78.7874 49.6091 80.2297 51.4081 80.4309 53.0363C81.9128 60.9976 83.2758 68.9925 84.3857 77.0178C78.5618 77.7679 73.2715 80.5396 67.719 82.2776C67.3318 80.3749 67.0177 78.4509 66.7677 76.5269C70.6858 74.1028 77.0006 74.4748 80.4706 70.9866C77.9977 65.0012 70.1401 69.5383 65.8103 70.6726C65.2614 68.715 65.0114 66.6782 64.676 64.6718C69.0058 63.3089 73.5307 62.4429 77.705 60.6348C79.5467 59.717 78.2965 57.4972 76.7079 57.0947C72.1738 55.6128 68.0178 58.5949 63.7795 59.7017C63.7033 58.0278 61.8464 54.9756 64.2369 54.4603C68.4539 53.082 72.5977 51.3501 76.9488 50.4384Z" fill="#F04133"/>
</g>
<defs>
<clipPath id="clip0_81_2969">
<rect width="128" height="128" fill="white"/>
</clipPath>
</defs>
</svg>
