<svg width="129" height="128" viewBox="0 0 129 128" fill="none" xmlns="http://www.w3.org/2000/svg">
<g clip-path="url(#clip0_43_148213)">
<path d="M16.5 0H112.5C123.167 0 128.5 5.33333 128.5 16V112C128.5 122.667 123.167 128 112.5 128H16.5C5.83333 128 0.5 122.667 0.5 112V16C0.5 5.33333 5.83333 0 16.5 0Z" fill="#F53415"/>
<path d="M59.4069 25.1462L54.7402 36.853L68.7669 50.9062H89.8336L97.8336 44.1062C97.8336 44.1062 99.0336 41.8662 100.1 39.3596L98.4736 32.2396L97.0069 31.3062L82.3136 29.8396L75.1669 20.9062L59.4069 25.1462Z" fill="#414141"/>
<path d="M82.4199 19.3867H100.233V19.4401H82.4199V19.3867Z" fill="#A6A6A7"/>
<path d="M82.4199 19.4404H100.233V19.4938H82.4199V19.4404Z" fill="#A5A5A6"/>
<path d="M82.4199 19.4932H100.233V19.5464H82.4199V19.4932Z" fill="#A4A4A5"/>
<path d="M82.4199 19.5469H100.233V19.6003H82.4199V19.5469Z" fill="#A3A3A4"/>
<path d="M82.4199 19.5996H100.233V19.653H82.4199V19.5996Z" fill="#A2A2A3"/>
<path d="M82.4199 19.6533H100.233V19.7066H82.4199V19.6533Z" fill="#A1A1A2"/>
<path d="M82.4199 19.707H100.233V19.7604H82.4199V19.707Z" fill="#A0A0A1"/>
<path d="M82.4199 19.7598H100.233V19.8131H82.4199V19.7598Z" fill="#9F9FA0"/>
<path d="M82.4199 19.8135H100.233V19.8667H82.4199V19.8135Z" fill="#9E9E9F"/>
<path d="M82.4199 19.8662H100.233V19.9196H82.4199V19.8662Z" fill="#9D9D9E"/>
<path d="M82.4199 19.9199H100.233V19.9733H82.4199V19.9199Z" fill="#9C9C9D"/>
<path d="M82.4199 19.9736H100.233V20.0269H82.4199V19.9736Z" fill="#9B9B9C"/>
<path d="M82.4199 20H100.233V20.0534H82.4199V20Z" fill="#9A9A9B"/>
<path d="M82.4199 20.0537H100.233V20.107H82.4199V20.0537Z" fill="#99999A"/>
<path d="M82.4199 20.1064H100.233V20.1598H82.4199V20.1064Z" fill="#989899"/>
<path d="M82.4199 20.1602H100.233V20.2135H82.4199V20.1602Z" fill="#979798"/>
<path d="M82.4199 20.2129H100.233V20.2661H82.4199V20.2129Z" fill="#969697"/>
<path d="M82.4199 20.2666H100.233V20.32H82.4199V20.2666Z" fill="#969596"/>
<path d="M82.4199 20.3203H100.233V20.3737H82.4199V20.3203Z" fill="#959495"/>
<path d="M82.4199 20.373H100.233V20.4263H82.4199V20.373Z" fill="#949394"/>
<path d="M82.4199 20.4268H100.233V20.4801H82.4199V20.4268Z" fill="#939293"/>
<path d="M82.4199 20.4805H100.233V20.5338H82.4199V20.4805Z" fill="#929192"/>
<path d="M82.4199 20.5332H100.233V20.5865H82.4199V20.5332Z" fill="#919091"/>
<path d="M82.4199 20.5869H100.233V20.6403H82.4199V20.5869Z" fill="#908F90"/>
<path d="M82.4199 20.6396H100.233V20.693H82.4199V20.6396Z" fill="#8F8E8F"/>
<path d="M82.4199 20.6934H100.233V20.7466H82.4199V20.6934Z" fill="#8E8D8E"/>
<path d="M82.4199 20.7471H100.233V20.8004H82.4199V20.7471Z" fill="#8D8C8D"/>
<path d="M82.4199 20.7998H100.233V20.8532H82.4199V20.7998Z" fill="#8C8B8C"/>
<path d="M82.4199 20.8535H100.233V20.9068H82.4199V20.8535Z" fill="#8B8A8B"/>
<path d="M82.4199 20.8799H100.233V20.9333H82.4199V20.8799Z" fill="#8A898A"/>
<path d="M82.4199 20.9336H100.233V20.9868H82.4199V20.9336Z" fill="#898889"/>
<path d="M82.4199 20.9863H100.233V21.0397H82.4199V20.9863Z" fill="#888788"/>
<path d="M82.4199 21.04H100.233V21.0934H82.4199V21.04Z" fill="#878687"/>
<path d="M82.4199 21.0938H100.233V21.147H82.4199V21.0938Z" fill="#868586"/>
<path d="M82.4199 21.1465H100.233V21.1999H82.4199V21.1465Z" fill="#858485"/>
<path d="M82.4199 21.2002H100.233V21.2536H82.4199V21.2002Z" fill="#848384"/>
<path d="M82.4199 21.2529H100.233V21.3062H82.4199V21.2529Z" fill="#838283"/>
<path d="M82.4199 21.3066H100.233V21.36H82.4199V21.3066Z" fill="#828182"/>
<path d="M82.4199 21.3604H100.233V21.4137H82.4199V21.3604Z" fill="#818081"/>
<path d="M82.4199 21.4131H100.233V21.4663H82.4199V21.4131Z" fill="#807F80"/>
<path d="M82.4199 21.4668H100.233V21.5202H82.4199V21.4668Z" fill="#7F7E7F"/>
<path d="M82.4199 21.5195H100.233V21.5729H82.4199V21.5195Z" fill="#7E7D7E"/>
<path d="M82.4199 21.5732H100.233V21.6265H82.4199V21.5732Z" fill="#7D7C7D"/>
<path d="M82.4199 21.627H100.233V21.6803H82.4199V21.627Z" fill="#7C7B7C"/>
<path d="M82.4199 21.6797H100.233V21.7331H82.4199V21.6797Z" fill="#7B7A7B"/>
<path d="M82.4199 21.707H100.233V21.7604H82.4199V21.707Z" fill="#7A797A"/>
<path d="M82.4199 21.7598H100.233V21.8131H82.4199V21.7598Z" fill="#797879"/>
<path d="M82.4199 21.8135H100.233V21.8667H82.4199V21.8135Z" fill="#787778"/>
<path d="M82.4199 21.8662H100.233V21.9196H82.4199V21.8662Z" fill="#777677"/>
<path d="M82.4199 21.9199H100.233V21.9733H82.4199V21.9199Z" fill="#767576"/>
<path d="M82.4199 21.9736H100.233V22.0269H82.4199V21.9736Z" fill="#767475"/>
<path d="M82.4199 22.0264H100.233V22.0797H82.4199V22.0264Z" fill="#757374"/>
<path d="M82.4199 22.0801H100.233V22.1335H82.4199V22.0801Z" fill="#747273"/>
<path d="M82.4199 22.1338H100.233V22.187H82.4199V22.1338Z" fill="#737172"/>
<path d="M82.4199 22.1865H100.233V22.2399H82.4199V22.1865Z" fill="#727071"/>
<path d="M82.4199 22.2402H100.233V22.2936H82.4199V22.2402Z" fill="#716F70"/>
<path d="M82.4199 22.293H100.233V22.3462H82.4199V22.293Z" fill="#706E6F"/>
<path d="M82.4199 22.3467H100.233V22.4001H82.4199V22.3467Z" fill="#6F6D6E"/>
<path d="M82.4199 22.4004H100.233V22.4538H82.4199V22.4004Z" fill="#6E6C6D"/>
<path d="M82.4199 22.4531H100.233V22.5064H82.4199V22.4531Z" fill="#6D6B6C"/>
<path d="M82.4199 22.5068H100.233V22.5602H82.4199V22.5068Z" fill="#6C6A6B"/>
<path d="M82.4199 22.5596H100.233V22.6129H82.4199V22.5596Z" fill="#6B696A"/>
<path d="M82.4199 22.5869H100.233V22.6403H82.4199V22.5869Z" fill="#6A6869"/>
<path d="M82.4199 22.6396H100.233V22.693H82.4199V22.6396Z" fill="#696768"/>
<path d="M82.4199 22.6934H100.233V22.7466H82.4199V22.6934Z" fill="#686667"/>
<path d="M82.4199 22.7471H100.233V22.8004H82.4199V22.7471Z" fill="#676566"/>
<path d="M82.4199 22.7998H100.233V22.8532H82.4199V22.7998Z" fill="#666465"/>
<path d="M82.4199 22.8535H100.233V22.9068H82.4199V22.8535Z" fill="#656364"/>
<path d="M82.4199 22.9062H100.233V22.9596H82.4199V22.9062Z" fill="#646263"/>
<path d="M82.4199 22.96H100.233V23.0133H82.4199V22.96Z" fill="#636162"/>
<path d="M82.4199 23.0137H100.233V23.0669H82.4199V23.0137Z" fill="#626061"/>
<path d="M82.4199 23.0664H100.233V23.1198H82.4199V23.0664Z" fill="#615F60"/>
<path d="M82.4199 23.1201H100.233V23.1735H82.4199V23.1201Z" fill="#605E5F"/>
<path d="M82.4199 23.1738H100.233V23.2271H82.4199V23.1738Z" fill="#5F5D5E"/>
<path d="M82.4199 23.2266H100.233V23.2799H82.4199V23.2266Z" fill="#5E5C5D"/>
<path d="M82.4199 23.2803H100.233V23.3336H82.4199V23.2803Z" fill="#5D5B5C"/>
<path d="M82.4199 23.333H100.233V23.3863H82.4199V23.333Z" fill="#5C5A5B"/>
<path d="M82.4199 23.3867H100.233V23.4401H82.4199V23.3867Z" fill="#5B595A"/>
<path d="M82.4199 23.4404H100.233V23.4938H82.4199V23.4404Z" fill="#5A5859"/>
<path d="M82.4199 23.4668H100.233V23.5202H82.4199V23.4668Z" fill="#595758"/>
<path d="M82.4199 23.5195H100.233V23.5729H82.4199V23.5195Z" fill="#585657"/>
<path d="M82.4199 23.5732H100.233V23.6265H82.4199V23.5732Z" fill="#575556"/>
<path d="M82.4199 23.627H100.233V23.6803H82.4199V23.627Z" fill="#565455"/>
<path d="M82.4199 23.6797H100.233V23.7331H82.4199V23.6797Z" fill="#565454"/>
<path d="M82.4199 23.7334H100.233V23.7866H82.4199V23.7334Z" fill="#555352"/>
<path d="M82.4199 23.7871H100.233V23.8405H82.4199V23.7871Z" fill="#545251"/>
<path d="M82.4199 23.8398H100.233V23.8932H82.4199V23.8398Z" fill="#535150"/>
<path d="M82.4199 23.8936H100.233V23.9468H82.4199V23.8936Z" fill="#52504F"/>
<path d="M82.4199 23.9463H100.233V23.9997H82.4199V23.9463Z" fill="#514F4E"/>
<path d="M82.4199 24H100.233V24.0534H82.4199V24Z" fill="#504E4D"/>
<path d="M82.4199 24.0537H100.233V24.107H82.4199V24.0537Z" fill="#4F4D4C"/>
<path d="M82.4199 24.1064H100.233V24.1598H82.4199V24.1064Z" fill="#4E4C4B"/>
<path d="M82.4199 24.1602H100.233V24.2135H82.4199V24.1602Z" fill="#4D4B4A"/>
<path d="M82.4199 24.2129H100.233V24.2661H82.4199V24.2129Z" fill="#4C4A49"/>
<path d="M82.4199 24.2666H100.233V24.32H82.4199V24.2666Z" fill="#4B4948"/>
<path d="M82.4199 24.3203H100.233V24.3737H82.4199V24.3203Z" fill="#4A4847"/>
<path d="M82.4199 24.3467H100.233V24.4001H82.4199V24.3467Z" fill="#494746"/>
<path d="M82.4199 24.4004H100.233V24.4538H82.4199V24.4004Z" fill="#484645"/>
<path d="M82.4199 24.4531H100.233V24.5064H82.4199V24.4531Z" fill="#474544"/>
<path d="M82.4199 24.5068H100.233V24.5602H82.4199V24.5068Z" fill="#464443"/>
<path d="M82.4199 24.5596H100.233V24.6129H82.4199V24.5596Z" fill="#454342"/>
<path d="M82.4199 24.6133H100.233V24.6665H82.4199V24.6133Z" fill="#444241"/>
<path d="M82.4199 24.667H100.233V24.7204H82.4199V24.667Z" fill="#434140"/>
<path d="M82.4199 24.7197H100.233V24.7731H82.4199V24.7197Z" fill="#42403F"/>
<path d="M82.4199 24.7734H100.233V24.8267H82.4199V24.7734Z" fill="#413F3E"/>
<path d="M82.4199 24.8262H100.233V24.8795H82.4199V24.8262Z" fill="#403E3D"/>
<path d="M82.4199 24.8799H100.233V24.9333H82.4199V24.8799Z" fill="#3F3D3C"/>
<path d="M82.4199 24.9336H100.233V24.9868H82.4199V24.9336Z" fill="#3E3C3B"/>
<path d="M82.4199 24.9863H100.233V25.0397H82.4199V24.9863Z" fill="#3D3B3A"/>
<path d="M82.4199 25.04H100.233V25.0934H82.4199V25.04Z" fill="#3C3A39"/>
<path d="M82.4199 25.0938H100.233V25.147H82.4199V25.0938Z" fill="#3B3938"/>
<path d="M82.4199 25.1465H100.233V25.1999H82.4199V25.1465Z" fill="#3A3837"/>
<path d="M82.4199 25.2002H100.233V25.2536H82.4199V25.2002Z" fill="#393736"/>
<path d="M82.4199 25.2266H100.233V25.2799H82.4199V25.2266Z" fill="#383635"/>
<path d="M82.4199 25.2803H100.233V25.3336H82.4199V25.2803Z" fill="#373534"/>
<path d="M82.4199 25.333H100.233V25.3863H82.4199V25.333Z" fill="#363433"/>
<path d="M82.4199 25.3867H100.233V25.4401H82.4199V25.3867Z" fill="#353332"/>
<path d="M82.4199 25.4404H100.233V25.4938H82.4199V25.4404Z" fill="#353231"/>
<path d="M82.4199 25.4932H100.233V25.5464H82.4199V25.4932Z" fill="#343130"/>
<path d="M82.4199 25.5469H100.233V25.6003H82.4199V25.5469Z" fill="#33302F"/>
<path d="M82.4199 25.5996H100.233V25.653H82.4199V25.5996Z" fill="#322F2E"/>
<path d="M82.4199 25.6533H100.233V25.7066H82.4199V25.6533Z" fill="#312E2D"/>
<path d="M82.4199 25.707H100.233V25.7604H82.4199V25.707Z" fill="#302D2C"/>
<path d="M82.4199 25.7598H100.233V25.8131H82.4199V25.7598Z" fill="#2F2C2B"/>
<path d="M82.4199 25.8135H100.233V25.8667H82.4199V25.8135Z" fill="#2E2B2A"/>
<path d="M82.4199 25.8662H100.233V25.9196H82.4199V25.8662Z" fill="#2D2A29"/>
<path d="M82.4199 25.9199H100.233V25.9733H82.4199V25.9199Z" fill="#2C2928"/>
<path d="M82.4199 25.9736H100.233V26.0269H82.4199V25.9736Z" fill="#2B2827"/>
<path d="M82.4199 26.0264H100.233V26.0797H82.4199V26.0264Z" fill="#2A2726"/>
<path d="M82.4199 26.0801H100.233V26.1335H82.4199V26.0801Z" fill="#292625"/>
<path d="M82.4199 26.1064H100.233V26.1598H82.4199V26.1064Z" fill="#282524"/>
<path d="M82.4199 26.1602H100.233V26.2135H82.4199V26.1602Z" fill="#272423"/>
<path d="M82.4199 26.2129H100.233V26.2661H82.4199V26.2129Z" fill="#262322"/>
<path d="M82.4199 26.2666H100.233V26.32H82.4199V26.2666Z" fill="#252221"/>
<path d="M82.4199 26.3203H100.233V26.3737H82.4199V26.3203Z" fill="#242120"/>
<path d="M82.4199 26.373H100.233V26.4263H82.4199V26.373Z" fill="#23201F"/>
<path d="M82.4199 26.4268H100.233V26.4801H82.4199V26.4268Z" fill="#221F1E"/>
<path d="M82.4199 26.4805H100.233V26.5338H82.4199V26.4805Z" fill="#211E1D"/>
<path d="M82.4199 26.5332H100.233V26.5865H82.4199V26.5332Z" fill="#201D1C"/>
<path d="M82.4199 26.5869H100.233V26.6403H82.4199V26.5869Z" fill="#1F1C1B"/>
<path d="M82.4199 26.6396H100.233V26.693H82.4199V26.6396Z" fill="#1E1B1A"/>
<path d="M82.4199 26.6934H100.233V26.7466H82.4199V26.6934Z" fill="#1D1A19"/>
<path d="M82.4199 26.7471H100.233V26.8004H82.4199V26.7471Z" fill="#1C1918"/>
<path d="M82.4199 26.7998H100.233V26.8532H82.4199V26.7998Z" fill="#1B1817"/>
<path d="M82.4199 26.8535H100.233V26.9068H82.4199V26.8535Z" fill="#1A1716"/>
<path d="M82.4199 26.9062H100.233V26.9596H82.4199V26.9062Z" fill="#191615"/>
<path d="M82.4199 26.9336H100.233V26.9868H82.4199V26.9336Z" fill="#181514"/>
<path d="M82.4199 26.9863H100.233V27.0397H82.4199V26.9863Z" fill="#171413"/>
<path d="M82.4199 27.04H100.233V27.0934H82.4199V27.04Z" fill="#161312"/>
<path d="M82.4199 27.0938H100.233V27.147H82.4199V27.0938Z" fill="#151211"/>
<path d="M82.4199 27.1465H100.233V27.1999H82.4199V27.1465Z" fill="#151110"/>
<path d="M82.4199 27.2002H100.233V27.2536H82.4199V27.2002Z" fill="#14100F"/>
<path d="M82.4199 27.2529H100.233V27.3062H82.4199V27.2529Z" fill="#130F0E"/>
<path d="M82.4199 27.3066H100.233V27.36H82.4199V27.3066Z" fill="#120E0D"/>
<path d="M82.4199 27.3604H100.233V27.4137H82.4199V27.3604Z" fill="#110D0C"/>
<path d="M82.4199 27.4131H100.233V27.4663H82.4199V27.4131Z" fill="#100C0B"/>
<path d="M82.4199 27.4668H100.233V27.5202H82.4199V27.4668Z" fill="#0F0B0A"/>
<path d="M82.4199 27.5195H100.233V27.5729H82.4199V27.5195Z" fill="#0E0A09"/>
<path d="M82.4199 27.5732H100.233V27.6265H82.4199V27.5732Z" fill="#0D0908"/>
<path d="M82.4199 27.627H100.233V27.6803H82.4199V27.627Z" fill="#0C0807"/>
<path d="M82.4199 27.6797H100.233V27.7331H82.4199V27.6797Z" fill="#0B0706"/>
<path d="M82.4199 27.7334H100.233V27.7866H82.4199V27.7334Z" fill="#0A0605"/>
<path d="M82.4199 27.7871H100.233V27.8405H82.4199V27.7871Z" fill="#090504"/>
<path d="M82.4199 27.8135H100.233V27.8667H82.4199V27.8135Z" fill="#080403"/>
<path d="M82.4199 27.8662H100.233V27.9196H82.4199V27.8662Z" fill="#070302"/>
<path d="M82.4199 27.9199H100.233V27.9733H82.4199V27.9199Z" fill="#060201"/>
<path d="M82.4199 27.9736H100.233V28.0269H82.4199V27.9736Z" fill="#050100"/>
<path d="M34.1804 39.2531C34.1804 40.9597 34.5004 42.6931 34.5538 44.4263C34.6567 45.9164 34.363 47.4072 33.7025 48.7469C33.0421 50.0866 32.0384 51.2274 30.7938 52.0531C28.813 53.4954 26.5648 54.5289 24.1804 55.0931C23.5678 55.265 22.9205 55.2702 22.3052 55.1082C21.6899 54.9462 21.1291 54.6229 20.6806 54.1717C20.2321 53.7204 19.9121 53.1576 19.7539 52.5414C19.5957 51.9252 19.6048 51.2779 19.7804 50.6663C20.1487 49.05 20.7506 47.4959 21.567 46.0531C23.5166 42.5621 24.9791 38.8207 25.9138 34.9331C26.1036 34.2077 26.3626 33.5023 26.687 32.8263C26.9546 32.2513 27.4184 31.7905 27.9951 31.5266C28.5718 31.2627 29.2237 31.2129 29.8338 31.3863C30.7595 31.6534 31.6536 32.02 32.5004 32.4797C33.807 33.1463 35.167 33.9463 36.367 34.6663C37.167 33.8397 37.9138 32.9331 38.7404 32.1331C41.6089 29.4775 44.9096 27.3311 48.5004 25.7863C54.1267 23.0923 60.0399 21.0437 66.127 19.6797C68.98 19.1046 71.8653 18.7038 74.767 18.4797C78.207 18.2397 81.7004 18.1063 85.1404 18.1863C89.6237 18.0834 94.0723 18.995 98.1538 20.8531C99.2654 21.2731 100.255 21.9636 101.032 22.8623C101.81 23.7609 102.351 24.8392 102.607 25.9997C102.825 27.7708 102.825 29.562 102.607 31.3331C102.129 34.3326 101.184 37.2389 99.807 39.9463C99.369 40.7114 98.7087 41.3252 97.9138 41.7063C96.0411 42.7126 94.013 43.3977 91.9138 43.7331C86.1553 44.9592 80.1714 44.5903 74.607 42.6663C71.3522 41.3624 68.4349 39.3385 66.0738 36.7463C65.8504 36.4563 65.5905 36.1964 65.3004 35.9731C64.9538 35.8131 64.4204 35.6797 64.1804 35.9731C64.0523 36.1112 63.9571 36.2765 63.9017 36.4566C63.8463 36.6366 63.8322 36.8268 63.8604 37.0131C63.9942 37.4385 64.2326 37.8236 64.5538 38.1331C68.025 41.9594 72.5852 44.6303 77.6204 45.7863C83.643 47.2755 89.9626 47.0445 95.8604 45.1197C96.2085 45.0143 96.5475 44.8805 96.8738 44.7197C97.2203 44.5418 97.5875 44.4074 97.967 44.3197C97.3004 45.3063 96.6604 46.2931 95.9938 47.2263C91.5075 53.3348 85.12 57.7807 77.8338 59.8663C73.1101 61.1467 68.1307 61.1467 63.407 59.8663C55.438 58.054 48.0041 54.401 41.7004 49.1997C39.6686 47.6059 37.9351 45.6648 36.5804 43.4663C36.0724 42.6336 35.6777 41.7368 35.407 40.7997C35.1938 40.0263 34.9004 39.5197 34.2338 39.3331L34.1804 39.2531ZM92.4738 20.1331C91.5404 20.1331 90.5804 20.1331 89.6738 20.3997C88.2471 20.5713 86.893 21.124 85.7538 21.9997C85.5162 22.145 85.324 22.3538 85.1989 22.6026C85.0737 22.8514 85.0206 23.1302 85.0456 23.4076C85.0706 23.6849 85.1726 23.9498 85.3401 24.1722C85.5077 24.3946 85.7341 24.5658 85.9938 24.6663C86.4507 24.9077 86.9338 25.0957 87.4338 25.2263C89.676 25.7283 91.9941 25.7917 94.2604 25.4131C95.4336 25.2499 96.5808 24.9362 97.6738 24.4797C98.0647 24.3526 98.4036 24.1017 98.6393 23.7649C98.875 23.4282 98.9948 23.0239 98.9804 22.6131C98.9804 21.7331 98.207 21.4131 97.567 21.0931C95.9543 20.4254 94.2184 20.1073 92.4738 20.1597V20.1331ZM65.807 30.5063C66.1056 30.528 66.4054 30.4897 66.6889 30.3935C66.9724 30.2973 67.2337 30.1453 67.4574 29.9465C67.6812 29.7476 67.8628 29.5059 67.9915 29.2357C68.1203 28.9654 68.1936 28.6721 68.207 28.3731C68.1934 28.0729 68.1203 27.7785 67.9919 27.5069C67.8635 27.2353 67.6823 26.9919 67.459 26.7909C67.2357 26.5899 66.9746 26.4353 66.691 26.3361C66.4074 26.2369 66.1069 26.1951 65.807 26.2131C65.505 26.1793 65.1993 26.2097 64.9098 26.3021C64.6203 26.3946 64.3535 26.5471 64.127 26.7497C63.9005 26.9523 63.7193 27.2005 63.5952 27.4779C63.4712 27.7553 63.407 28.0558 63.407 28.3597C63.407 28.6636 63.4712 28.9641 63.5952 29.2415C63.7193 29.519 63.9005 29.7671 64.127 29.9697C64.3535 30.1723 64.6203 30.3248 64.9098 30.4173C65.1993 30.5098 65.505 30.5401 65.807 30.5063ZM76.2604 82.1863H74.447C74.287 82.1863 74.0738 81.8931 74.0204 81.7063C73.5938 79.9997 73.2204 78.2663 72.7404 76.5597C72.5313 75.8881 72.2259 75.2503 71.8338 74.6663C71.7321 74.464 71.5797 74.2915 71.3913 74.1659C71.2029 74.0402 70.9851 73.9657 70.7593 73.9495C70.5334 73.9334 70.3072 73.9762 70.1029 74.0738C69.8986 74.1715 69.7231 74.3205 69.5938 74.5063C68.9293 75.3147 68.3817 76.2124 67.967 77.1731C67.4211 78.5758 66.9581 80.0093 66.5804 81.4663C66.3938 82.0531 66.207 82.3731 65.5404 82.2663C65.123 82.2396 64.7044 82.2396 64.287 82.2663C64.287 79.7597 64.4738 77.3597 64.5804 74.7463C64.1001 74.9393 63.6363 75.1712 63.1938 75.4397C62.4014 76.0635 61.6447 76.7312 60.927 77.4397C59.6204 78.7731 58.2604 80.1063 57.1138 81.4931C56.3404 82.3463 56.0738 82.4263 54.7138 82.1331L59.5404 73.9463C58.7752 73.8289 58.0509 73.5239 57.4321 73.0586C56.8132 72.5934 56.3191 71.9822 55.9938 71.2797C55.6205 70.3007 55.6205 69.2187 55.9938 68.2397C55.9938 68.5863 56.1538 68.9597 56.2604 69.3063C56.3542 69.7198 56.5334 70.109 56.7866 70.4491C57.0397 70.7891 57.3612 71.0725 57.7304 71.2809C58.0995 71.4893 58.5082 71.6183 58.9301 71.6594C59.3521 71.7005 59.7779 71.6529 60.1804 71.5197C60.6888 71.3535 61.1289 71.0258 61.4338 70.5863C63.007 67.9197 64.527 65.4663 66.0204 62.8797C66.1036 62.6789 66.2603 62.5174 66.4585 62.4282C66.6568 62.339 66.8815 62.3288 67.087 62.3997C69.5308 62.9196 72.0566 62.9196 74.5004 62.3997C75.0338 62.2663 75.567 62.0263 76.1538 61.8131V82.1597L76.2604 82.1863ZM46.5538 92.0263C46.3138 92.6931 45.1138 92.8531 40.367 92.8531C35.6203 92.8531 34.5538 93.0131 34.5538 93.6797C34.5538 94.3463 36.4204 94.5331 48.447 94.5331C60.4737 94.5331 62.3404 94.5331 62.3404 93.6797C62.3404 92.8263 61.2738 92.8531 56.207 92.8531C51.1403 92.8531 50.1004 92.6931 50.1004 92.0263C50.1004 91.3596 49.5404 91.1997 48.5004 91.1997C48.1319 91.1537 47.7577 91.2059 47.4158 91.3511C47.074 91.4962 46.7766 91.7292 46.5538 92.0263ZM72.6604 92.0263C72.447 92.6397 71.567 92.8531 69.567 92.8531C67.567 92.8531 66.9004 93.0931 66.9004 93.6797C66.9004 94.2663 67.5138 94.5331 69.1404 94.5331C70.367 94.5331 71.3538 94.5331 71.3538 94.7997C70.8829 96.0436 70.3306 97.2551 69.7004 98.4263C69.0218 99.6604 68.4593 100.955 68.0204 102.293C68.0204 102.64 70.0738 102.853 73.3538 102.853H78.687V107.306C78.687 111.146 78.527 111.866 77.567 112.426C77.29 112.584 77.0494 112.799 76.861 113.056C76.6727 113.314 76.5407 113.608 76.4738 113.92C76.4738 115.146 79.9138 114.213 81.3538 112.533C82.4204 111.36 82.5804 110.48 82.5804 106.986V102.853H88.127C92.6338 102.853 93.7004 102.693 93.7004 102.026C93.7004 101.36 92.5804 101.2 88.367 101.093L82.9004 100.906L82.447 98.6663C82.287 96.3731 82.2338 96.3197 80.3404 96.3197C78.447 96.3197 78.447 96.3197 78.447 98.8263V101.333H75.7804C74.7458 101.396 73.7081 101.279 72.7138 100.986C72.8672 99.8054 73.2669 98.6698 73.887 97.6531L75.327 94.6663H84.9538C93.1138 94.6663 94.5804 94.6663 94.5804 93.8131C94.5804 92.9598 93.167 92.9863 85.407 92.9863C77.647 92.9863 76.287 92.9863 76.5538 92.1597C76.8205 91.3331 76.5538 91.3331 74.9538 91.3331C73.3538 91.3331 72.9004 91.6531 72.6604 92.1597V92.0263ZM35.5404 99.3063C35.4331 100.415 35.4331 101.531 35.5404 102.64C37.4448 102.836 39.36 102.907 41.2738 102.853H46.607V105.866C46.607 110.133 46.047 112.186 44.9004 112.586C44.6215 112.663 44.3714 112.82 44.1816 113.038C43.9918 113.257 43.8708 113.526 43.8338 113.813C43.8338 115.04 47.007 114.373 48.6604 112.746C49.7804 111.706 49.9404 111.04 49.9404 107.2V102.853H61.0604V96.1863H35.7538L35.5404 99.3063ZM57.7804 99.3063L57.6204 100.853H39.2738L39.1138 99.3063L38.927 97.8131H57.9404L57.7804 99.3063ZM37.647 107.306C37.1514 109.159 36.4445 110.948 35.5404 112.64L34.4204 114.48H35.5938C36.8738 114.48 39.5938 111.146 41.2738 107.52C42.7138 104.426 42.607 103.92 40.5004 103.92C38.3938 103.92 38.607 103.92 37.647 107.36V107.306ZM54.5538 104.64C55.4171 107.547 56.8292 110.263 58.7138 112.64C59.3442 113.469 60.2221 114.076 61.2204 114.373C62.1538 114.373 62.1538 114.213 60.9538 111.973C60.0182 110.308 59.3437 108.509 58.9538 106.64C58.287 103.973 58.207 103.76 56.287 103.76C55.007 103.76 54.447 104.026 54.447 104.586L54.5538 104.64ZM70.5538 104.213C70.2669 105.085 70.044 105.976 69.887 106.88C69.5402 108.663 68.9385 110.388 68.1004 112C67.0604 114.053 66.9538 114.666 67.567 114.666C69.1138 114.666 73.0604 109.173 74.2338 105.333C74.607 104.213 74.447 104.106 72.6604 104.106C71.6204 104.106 70.607 104.266 70.5004 104.506L70.5538 104.213ZM86.287 104.026C86.6706 105.143 87.1158 106.238 87.6204 107.306C89.0604 110.586 92.127 114.373 93.3004 114.373C94.4738 114.373 94.287 114.106 93.1138 112.373C92.2973 110.893 91.6446 109.328 91.167 107.706C90.2338 104.32 90.1804 104.24 88.2338 104.08H86.1804L86.287 104.026Z" fill="white"/>
</g>
<defs>
<clipPath id="clip0_43_148213">
<rect width="128" height="128" fill="white" transform="translate(0.5)"/>
</clipPath>
</defs>
</svg>
