<svg width="128" height="128" viewBox="0 0 128 128" fill="none" xmlns="http://www.w3.org/2000/svg">
<g clip-path="url(#clip0_38_106)">
<path d="M127.993 64.0009C127.993 55.1602 128.071 46.4025 127.578 37.5837C127.081 27.338 124.742 18.2443 117.25 10.7477C109.744 3.2423 100.664 0.920877 90.4136 0.423428C81.5774 -0.0740205 72.8197 0.00452419 64.0009 0.00452419C55.1602 0.00452419 46.4025 -0.0740205 37.5837 0.423428C27.338 0.920877 18.2443 3.25976 10.7477 10.7477C3.2423 18.2574 0.920877 27.338 0.423428 37.5837C-0.0740205 46.42 0.00452419 55.1777 0.00452419 64.0009C0.00452419 72.8197 -0.0740205 81.5948 0.423428 90.418C0.920877 100.664 3.25976 109.757 10.7477 117.254C18.2574 124.759 27.338 127.081 37.5837 127.578C46.42 128.071 55.1777 127.993 64.0009 127.993C72.8371 127.993 81.5948 128.071 90.418 127.578C100.664 127.081 109.757 124.742 117.254 117.25C124.759 109.744 127.081 100.664 127.578 90.4136C128.089 81.5948 127.993 72.8371 127.993 64.0009Z" fill="#1C0B1B"/>
<path d="M57.5035 53.0526C45.2462 52.4635 36.7285 56.8315 31.946 66.1652C24.7722 80.1592 30.698 103.064 54.6366 103.064C78.5665 103.064 79.2603 79.9367 79.2603 77.5149V50.417C84.3788 53.6635 88.6944 55.614 92.2114 56.2773C95.7241 56.9362 97.9539 57.2286 98.9095 57.1544V43.6709C95.6587 43.2826 92.8485 42.5364 90.4791 41.4368C86.9228 39.7786 79.8756 35.1968 79.8756 28.4769V23.2755H65.0569C65.0132 56.1944 65.0132 74.2771 65.0569 77.5149C65.1223 82.3716 61.3522 89.1657 53.7115 89.1657C46.0709 89.1657 42.3008 82.3803 42.3008 77.9949C42.3008 75.3156 43.2215 71.432 47.0265 68.5521C49.2869 66.8459 52.4199 66.1652 57.5035 66.1652V53.0526Z" fill="white"/>
</g>
<defs>
<clipPath id="clip0_38_106">
<rect width="128" height="128" fill="white"/>
</clipPath>
</defs>
</svg>
