<svg width="130" height="128" viewBox="0 0 130 128" fill="none" xmlns="http://www.w3.org/2000/svg">
<g clip-path="url(#clip0_43_148387)">
<path d="M111.433 0H17.5667C8.14089 0 0.5 7.64089 0.5 17.0667V110.933C0.5 120.359 8.14089 128 17.5667 128H111.433C120.859 128 128.5 120.359 128.5 110.933V17.0667C128.5 7.64089 120.859 0 111.433 0ZM36.6266 32.4565C40.8676 32.4565 44.3002 35.5477 44.3002 39.3365C44.3002 43.1232 40.8676 46.2108 36.6266 46.2108C32.3919 46.2108 28.9601 43.1239 28.9601 39.3365C28.9601 35.5484 32.3926 32.4565 36.6266 32.4565ZM43.0266 73.7628C41.0028 80.0334 41.5055 77.7081 33.4707 95.1623L21.8333 87.9054C21.8333 87.9054 34.8111 76.0932 37.4835 70.6987C40.3016 65.0034 34.3667 61.9705 34.3667 61.9705L25.4543 56.4139L30.2685 48.9899C36.9942 53.9812 37.4977 54.4007 42.0374 58.9447C45.5432 62.4647 45.1016 67.3536 43.0266 73.7628ZM106.291 81.9079C104.022 103.197 76.3236 95.2903 76.3236 95.2903L77.8255 89.1932L84.2369 90.5749C96.1089 91.3294 94.9505 80.9579 94.9505 80.9579V50.8174C95.05 39.3771 84.1893 38.1881 64.702 45.1591L69.2424 46.3851C68.8435 47.7255 67.3686 49.8098 65.4948 52.0996H91.5685V57.3717H76.8904V63.973H91.5052V69.2452H76.8911V80.31C79.0721 79.5776 81.1201 78.5892 82.8936 77.2743L81.598 72.4466L88.505 70.3033L94.2372 84.3762L85.7473 87.9054L84.2362 82.2948C80.4531 85.2011 72.5597 89.3981 58.804 89.0276C44.0968 89.4037 47.8671 72.4459 47.8671 72.4459L48.2433 72.2489H58.5779C58.5103 74.4391 57.62 77.9918 58.8431 79.926C59.8358 81.5132 62.4271 81.7892 64.0762 81.8631C64.2596 81.888 64.4566 81.888 64.6493 81.8951V69.2452H49.652V63.973H64.6493V57.371H60.7987C57.423 60.9515 54.3489 63.9154 54.3489 63.9154L49.8227 59.9566C53.0376 56.576 56.254 51.227 58.2323 47.6423C56.5609 48.3236 54.8994 49.0286 53.2481 49.7572C51.4583 52.0057 49.5441 54.1523 47.5144 56.187C47.5933 56.3065 40.1196 52 40.1196 52C47.8444 45.4009 52.1764 31.274 52.1764 31.274L62.9284 34.2777C62.9284 34.2777 62.0246 36.3733 60.2013 39.5712C103.222 27.3899 105.718 47.0393 105.718 47.0393C105.718 47.0393 108.553 60.6123 106.291 81.9079Z" fill="#FF5000"/>
</g>
<defs>
<clipPath id="clip0_43_148387">
<rect width="129" height="128" fill="white" transform="translate(0.5)"/>
</clipPath>
</defs>
</svg>
