<svg width="128" height="128" viewBox="0 0 128 128" fill="none" xmlns="http://www.w3.org/2000/svg">
<g clip-path="url(#clip0_38_104)">
<path d="M16 10.6667H117.333V112H16V10.6667Z" fill="white"/>
<path d="M30.512 0C12.0053 0 0 12 0 30.5013V97.4933C0 116.005 12.0107 128 30.512 128H97.4987C116.005 128 128 116 128 97.4987V30.5067C128 11.9947 116 0 97.4987 0H30.512ZM40.9867 21.7493C39.5413 25.6427 38.32 29.3973 37.36 33.0027H61.824C64.7307 32.9707 64.1973 39.232 64.1973 39.248H50.048C50.0697 46.0029 49.8704 52.7568 49.4507 59.4987H63.9147C65.984 59.6213 66.0107 66.1707 66.0107 66.2507H48.976C48.6884 70.0594 47.9581 73.8216 46.8 77.4613L50.8373 74.24C53.248 76.672 58.9013 83.3707 61.0027 85.8507C63.5253 89.4827 61.3387 96.9493 61.3387 96.9493L46.4373 78.912C42.9547 92.3413 36.5973 98.1493 36.5973 98.1493C33.808 100.645 28.1707 102.523 22.5173 100.901C34.3467 91.6747 40.864 80.0107 42.0747 66.2507H23.952C23.952 66.1707 25.0027 59.6213 28.2507 59.4987H42.704C42.832 57.792 43.1627 42.144 43.1627 39.248H35.1893C34.464 41.4133 34.3467 41.632 33.76 43.264C30.592 49.104 25.2107 49.248 23.5893 49.424C28.4213 39.712 31.1413 30.224 32.0747 27.7493C34.3413 21.7547 40.9867 21.7493 40.9867 21.7493ZM69.7493 32H103.76V92.4267H90.0373L78.3893 99.7493L76.2507 92.4267H69.7493V32ZM76.752 38.5013V85.7547H80.0747L81.4773 90.752L89.2373 85.7493H97.0027V38.496L76.752 38.5013Z" fill="#5262F2"/>
</g>
<defs>
<clipPath id="clip0_38_104">
<rect width="128" height="128" fill="white"/>
</clipPath>
</defs>
</svg>
