<svg width="129" height="128" viewBox="0 0 129 128" fill="none" xmlns="http://www.w3.org/2000/svg">
<g clip-path="url(#clip0_43_148384)">
<path d="M128.5 110.933C128.5 120.359 120.859 128 111.433 128H17.5667C8.14089 128 0.5 120.359 0.5 110.933V17.0667C0.5 7.64089 8.14089 0 17.5667 0H111.433C120.859 0 128.5 7.64089 128.5 17.0667V110.933Z" fill="#00B51D"/>
<path d="M104.942 21.333H24.0572C23.8605 21.333 23.6658 21.3717 23.4841 21.447C23.3024 21.5223 23.1373 21.6326 22.9982 21.7716C22.8591 21.9107 22.7488 22.0758 22.6736 22.2575C22.5983 22.4392 22.5596 22.6339 22.5596 22.8306V28.8217C22.5596 29.6487 23.2301 30.3193 24.0572 30.3193H104.942C105.339 30.3193 105.72 30.1615 106.001 29.8807C106.282 29.5998 106.439 29.2189 106.439 28.8217V22.8306C106.439 22.4334 106.282 22.0525 106.001 21.7716C105.72 21.4908 105.339 21.333 104.942 21.333ZM104.942 97.6786H84.2705L90.4494 78.1344H98.1173C98.5144 78.1344 98.8954 77.9767 99.1762 77.6958C99.4571 77.4149 99.6149 77.034 99.6149 76.6368V40.3552C99.615 40.1585 99.5763 39.9638 99.5011 39.782C99.4258 39.6003 99.3155 39.4351 99.1764 39.2961C99.0373 39.157 98.8722 39.0467 98.6905 38.9714C98.5087 38.8962 98.314 38.8575 98.1173 38.8576H30.8817C30.4845 38.8576 30.1036 39.0154 29.8227 39.2963C29.5419 39.5771 29.3841 39.958 29.3841 40.3552V76.6368C29.3841 77.4639 30.054 78.1344 30.8817 78.1344H78.3014L72.1219 97.6786H55.0339L50.5027 83.349C50.2417 82.5213 49.3592 81.8514 48.5322 81.8514H39.3766C38.5496 81.8514 38.0909 82.5213 38.3533 83.349L42.8838 97.6786H24.0572C23.8605 97.6786 23.6658 97.7173 23.4841 97.7926C23.3024 97.8679 23.1373 97.9782 22.9982 98.1172C22.8591 98.2563 22.7488 98.4214 22.6736 98.6031C22.5983 98.7848 22.5596 98.9795 22.5596 99.1762V105.168C22.5596 105.995 23.2301 106.666 24.0572 106.666H104.942C105.339 106.666 105.72 106.508 106.001 106.227C106.282 105.946 106.439 105.565 106.439 105.168V99.1762C106.439 98.779 106.282 98.3981 106.001 98.1172C105.72 97.8364 105.339 97.6786 104.942 97.6786ZM43.6127 67.2331V49.7575C43.6127 48.9305 44.2826 48.2599 45.1103 48.2599H83.8879C84.7149 48.2599 85.3855 48.9312 85.3855 49.7575V67.2331C85.3855 67.4298 85.3468 67.6245 85.2715 67.8062C85.1963 67.9879 85.086 68.153 84.9469 68.2921C84.8078 68.4311 84.6427 68.5414 84.461 68.6167C84.2793 68.692 84.0846 68.7307 83.8879 68.7307H45.1103C44.9137 68.7307 44.7189 68.692 44.5372 68.6167C44.3555 68.5414 44.1904 68.4311 44.0514 68.2921C43.9123 68.153 43.802 67.9879 43.7267 67.8062C43.6515 67.6245 43.6127 67.4298 43.6127 67.2331Z" fill="white"/>
</g>
<defs>
<clipPath id="clip0_43_148384">
<rect width="128" height="128" fill="white" transform="translate(0.5)"/>
</clipPath>
</defs>
</svg>
