<svg width="128" height="128" viewBox="0 0 128 128" fill="none" xmlns="http://www.w3.org/2000/svg">
<g clip-path="url(#clip0_38_130)">
<path d="M0 64C0 80.9739 6.74284 97.2525 18.7452 109.255C30.7475 121.257 47.0261 128 64 128C80.9739 128 97.2525 121.257 109.255 109.255C121.257 97.2525 128 80.9739 128 64C128 47.0261 121.257 30.7475 109.255 18.7452C97.2525 6.74284 80.9739 0 64 0C47.0261 0 30.7475 6.74284 18.7452 18.7452C6.74284 30.7475 0 47.0261 0 64Z" fill="#DEFDE5"/>
<path d="M25.5996 63.9996C25.5996 74.1839 29.6453 83.9511 36.8467 91.1525C44.0481 98.3539 53.8153 102.4 63.9996 102.4C74.1839 102.4 83.9511 98.3539 91.1525 91.1525C98.3539 83.9511 102.4 74.1839 102.4 63.9996C102.4 53.8153 98.3539 44.0481 91.1525 36.8467C83.9511 29.6453 74.1839 25.5996 63.9996 25.5996C53.8153 25.5996 44.0481 29.6453 36.8467 36.8467C29.6453 44.0481 25.5996 53.8153 25.5996 63.9996Z" fill="#2ECD76"/>
<path d="M70.2721 51.3275C69.9706 51.0289 69.7387 50.6833 69.5766 50.2907C69.4145 49.8982 69.3334 49.49 69.3334 49.0662C69.3334 48.8557 69.3533 48.6481 69.3931 48.4433C69.4358 48.2356 69.497 48.0351 69.5766 47.8417C69.6562 47.6483 69.7558 47.4634 69.8753 47.287C69.989 47.1135 70.1213 46.9528 70.2721 46.8049C70.42 46.6541 70.5807 46.5204 70.7542 46.4038C70.9306 46.29 71.1154 46.1919 71.3089 46.1094C71.5023 46.0298 71.7014 45.9686 71.9062 45.9259C72.1138 45.8861 72.3229 45.8662 72.5334 45.8662C72.9601 45.8662 73.3682 45.9473 73.7579 46.1094C74.1505 46.2715 74.4961 46.5034 74.7947 46.8049L83.3281 55.3382C83.6296 55.6369 83.8614 55.9825 84.0235 56.375C84.1857 56.7675 84.2667 57.1757 84.2667 57.5995C84.2667 57.81 84.2468 58.0177 84.207 58.2225C84.1643 58.4301 84.1032 58.6307 84.0235 58.8241C83.9439 59.0175 83.8443 59.2024 83.7249 59.3787C83.6111 59.5523 83.4788 59.713 83.3281 59.8609C83.1802 60.0116 83.0194 60.1453 82.8459 60.2619C82.6696 60.3757 82.4847 60.4739 82.2913 60.5563C82.0978 60.636 81.8987 60.6971 81.6939 60.7398C81.4863 60.7796 81.2772 60.7995 81.0667 60.7995H46.9334C46.7229 60.7995 46.5153 60.7796 46.3105 60.7398C46.1028 60.6971 45.9023 60.636 45.7089 60.5563C45.5154 60.4767 45.3306 60.3771 45.1542 60.2577C44.9807 60.1439 44.82 60.0116 44.6721 59.8609C44.5213 59.713 44.3876 59.5523 44.271 59.3787C44.1572 59.2024 44.0591 59.0175 43.9766 58.8241C43.897 58.6307 43.8358 58.4315 43.7931 58.2267C43.7533 58.0191 43.7334 57.81 43.7334 57.5995C43.7334 57.3891 43.7533 57.1814 43.7931 56.9766C43.8358 56.769 43.897 56.5684 43.9766 56.375C44.0562 56.1816 44.1558 55.9967 44.2753 55.8203C44.389 55.6468 44.5213 55.4861 44.6721 55.3382C44.82 55.1875 44.9807 55.0538 45.1542 54.9371C45.3306 54.8234 45.5154 54.7252 45.7089 54.6427C45.9023 54.5631 46.1014 54.5019 46.3062 54.4593C46.5138 54.4195 46.7229 54.3995 46.9334 54.3995H73.3441L70.2721 51.3275Z" fill="#FDFFFE"/>
<path d="M57.7281 76.6722C58.0296 76.9709 58.2614 77.3165 58.4235 77.709C58.5857 78.1015 58.6667 78.5097 58.6667 78.9335C58.6667 79.144 58.6468 79.3517 58.607 79.5565C58.5643 79.7641 58.5032 79.9646 58.4235 80.1581C58.3439 80.3515 58.2443 80.5364 58.1249 80.7127C58.0111 80.8862 57.8788 81.047 57.7281 81.1949C57.5802 81.3456 57.4194 81.4793 57.2459 81.5959C57.0696 81.7097 56.8847 81.8078 56.6913 81.8903C56.4978 81.97 56.2987 82.0311 56.0939 82.0738C55.8863 82.1136 55.6772 82.1335 55.4667 82.1335C55.0401 82.1335 54.6319 82.0525 54.2422 81.8903C53.8497 81.7282 53.5041 81.4964 53.2054 81.1949L44.6721 72.6615C44.3706 72.3629 44.1387 72.0173 43.9766 71.6247C43.8145 71.2322 43.7334 70.824 43.7334 70.4002C43.7334 70.1897 43.7533 69.9821 43.7931 69.7773C43.8358 69.5696 43.897 69.3691 43.9766 69.1757C44.0562 68.9822 44.1558 68.7974 44.2753 68.621C44.389 68.4475 44.5213 68.2868 44.6721 68.1389C44.82 67.9881 44.9807 67.8544 45.1542 67.7378C45.3306 67.624 45.5154 67.5259 45.7089 67.4434C45.9023 67.3638 46.1014 67.3026 46.3062 67.2599C46.5138 67.2201 46.7229 67.2002 46.9334 67.2002H81.0667C81.2772 67.2002 81.4849 67.2201 81.6897 67.2599C81.8973 67.3026 82.0978 67.3638 82.2913 67.4434C82.4847 67.523 82.6696 67.6226 82.8459 67.7421C83.0194 67.8558 83.1802 67.9881 83.3281 68.1389C83.4788 68.2868 83.6125 68.4475 83.7291 68.621C83.8429 68.7974 83.941 68.9822 84.0235 69.1757C84.1032 69.3691 84.1643 69.5682 84.207 69.773C84.2468 69.9806 84.2667 70.1897 84.2667 70.4002C84.2667 70.6107 84.2468 70.8183 84.207 71.0231C84.1643 71.2308 84.1032 71.4313 84.0235 71.6247C83.9439 71.8182 83.8443 72.003 83.7249 72.1794C83.6111 72.3529 83.4788 72.5136 83.3281 72.6615C83.1802 72.8123 83.0194 72.946 82.8459 73.0626C82.6696 73.1764 82.4847 73.2745 82.2913 73.357C82.0978 73.4366 81.8987 73.4978 81.6939 73.5405C81.4863 73.5803 81.2772 73.6002 81.0667 73.6002H54.6561L57.7281 76.6722Z" fill="#B1F0CE"/>
</g>
<defs>
<clipPath id="clip0_38_130">
<rect width="128" height="128" fill="white"/>
</clipPath>
</defs>
</svg>
